<svg id="Group_9" data-name="Group 9" xmlns="http://www.w3.org/2000/svg" width="111.191" height="119.117" viewBox="0 0 111.191 119.117">
  <g id="Group_4" data-name="Group 4" transform="translate(0)">
    <g id="Group_3" data-name="Group 3">
      <path id="Path_7" data-name="Path 7" d="M74.865,0a49.627,49.627,0,0,0-49.35,47.859L13.276,80.713a3.293,3.293,0,0,0,3.1,4.472h9.1V95.443a3.311,3.311,0,0,0,3.315,3.315H39.362V115.8a3.311,3.311,0,0,0,3.315,3.315H93.223a3.374,3.374,0,0,0,3.315-3.374,45.061,45.061,0,0,1,13.475-31.677A49.376,49.376,0,0,0,74.865,0Zm30.422,79.4a51.83,51.83,0,0,0-15.26,33.089H45.973V95.443a3.311,3.311,0,0,0-3.315-3.315H32.086V81.89a3.311,3.311,0,0,0-3.315-3.315h-7.65s10.964-29.637,10.964-30.01a42.753,42.753,0,0,1,85.5.823A42.284,42.284,0,0,1,105.286,79.4Z" transform="translate(-13.062)" fill="#5d33d0"/>
    </g>
  </g>
  <g id="Group_6" data-name="Group 6" transform="translate(27.791 15.574)">
    <g id="Group_5" data-name="Group 5">
      <path id="Path_8" data-name="Path 8" d="M170.347,78.652l-7.238-2.766c-.2-.471-.373-.961-.588-1.432l3.138-7.081a3.309,3.309,0,0,0-.687-3.688l-4.864-4.864a3.33,3.33,0,0,0-3.688-.687l-7.1,3.138a14.71,14.71,0,0,0-1.432-.588L145.1,53.447a3.3,3.3,0,0,0-3.1-2.118H135.08a3.339,3.339,0,0,0-3.1,2.118L129.2,60.665c-.471.2-.961.373-1.432.588l-7.081-3.138A3.3,3.3,0,0,0,117,58.8l-4.884,4.884a3.336,3.336,0,0,0-.687,3.688l3.138,7.081a14.708,14.708,0,0,0-.588,1.432l-7.2,2.785a3.272,3.272,0,0,0-2.118,3.1v6.924a3.34,3.34,0,0,0,2.118,3.1l7.218,2.785c.2.471.373.961.588,1.432l-3.138,7.061a3.309,3.309,0,0,0,.687,3.688l4.884,4.884a3.33,3.33,0,0,0,3.688.687l7.081-3.138a14.7,14.7,0,0,0,1.432.588L132,117a3.3,3.3,0,0,0,3.1,2.118h6.924a3.34,3.34,0,0,0,3.1-2.118l2.785-7.218c.471-.2.961-.373,1.432-.588l7.081,3.138a3.308,3.308,0,0,0,3.688-.687l4.884-4.884a3.336,3.336,0,0,0,.687-3.688l-3.138-7.081a14.723,14.723,0,0,0,.588-1.432l7.218-2.785a3.3,3.3,0,0,0,2.118-3.1V81.751A3.4,3.4,0,0,0,170.347,78.652ZM165.836,86.4,159.3,88.91a3.34,3.34,0,0,0-1.962,2.118,21.9,21.9,0,0,1-1.393,3.334,3.3,3.3,0,0,0-.1,2.883l2.844,6.394-1.667,1.667-6.394-2.844a3.242,3.242,0,0,0-2.883.1,18.545,18.545,0,0,1-3.334,1.393,3.394,3.394,0,0,0-2.118,1.962l-2.511,6.531h-2.373l-2.491-6.551a3.3,3.3,0,0,0-2.118-1.962,21.9,21.9,0,0,1-3.334-1.393,3.305,3.305,0,0,0-2.883-.1l-6.394,2.864-1.667-1.667,2.844-6.394a3.24,3.24,0,0,0-.1-2.883,18.544,18.544,0,0,1-1.393-3.334,3.394,3.394,0,0,0-1.962-2.118l-6.59-2.53V84.006l6.531-2.511a3.34,3.34,0,0,0,1.962-2.118,21.893,21.893,0,0,1,1.393-3.334,3.305,3.305,0,0,0,.1-2.883l-2.844-6.394,1.667-1.667,6.394,2.864a3.24,3.24,0,0,0,2.883-.1,18.544,18.544,0,0,1,3.334-1.393,3.492,3.492,0,0,0,2.118-1.962l2.511-6.531h2.373l2.511,6.531a3.34,3.34,0,0,0,2.118,1.962,21.1,21.1,0,0,1,3.334,1.393,3.305,3.305,0,0,0,2.883.1L156.99,65.1l1.667,1.667-2.844,6.394a3.24,3.24,0,0,0,.1,2.883,18.544,18.544,0,0,1,1.393,3.334,3.393,3.393,0,0,0,1.962,2.118l6.531,2.511V86.38h.039v.02Z" transform="translate(-104.658 -51.329)" fill="#5d33d0"/>
    </g>
  </g>
  <g id="Group_8" data-name="Group 8" transform="translate(49.014 36.777)">
    <g id="Group_7" data-name="Group 7">
      <path id="Path_9" data-name="Path 9" d="M187.3,121.212a12.69,12.69,0,1,0,12.69,12.69A12.711,12.711,0,0,0,187.3,121.212Zm0,18.732a6.08,6.08,0,1,1,6.08-6.08A6.085,6.085,0,0,1,187.3,139.944Z" transform="translate(-174.607 -121.212)" fill="#5d33d0"/>
    </g>
  </g>
</svg>
