<svg id="Group_14" data-name="Group 14" xmlns="http://www.w3.org/2000/svg" width="119.205" height="119.07" viewBox="0 0 119.205 119.07">
  <g id="Group_11" data-name="Group 11" transform="translate(0 0)">
    <g id="Group_10" data-name="Group 10">
      <path id="Path_10" data-name="Path 10" d="M115.334,97.788,95.975,78.452a12.522,12.522,0,0,0-15.088-1.995l-6.242-6.242a42.432,42.432,0,1,0-4.67,4.67l6.242,6.242a12.6,12.6,0,0,0-1.643,6.195,12.461,12.461,0,0,0,3.684,8.87L97.876,115.81c5.749,5.749,14.525,3.825,18.561-.892C120.543,110.037,120,102.458,115.334,97.788ZM42.426,78.452a35.576,35.576,0,0,1-23.161-8.542A24.427,24.427,0,0,1,32.993,54.869L39.657,65.1a3.3,3.3,0,0,0,5.538,0l6.664-10.231A24.368,24.368,0,0,1,65.587,69.911,35.7,35.7,0,0,1,42.426,78.452Zm9.058-30.764a3.3,3.3,0,0,0-3.731,1.361l-5.327,8.166-5.3-8.166a3.3,3.3,0,0,0-3.731-1.361A31.07,31.07,0,0,0,14.2,64.584,35.47,35.47,0,0,1,7.673,51.115h4.764a3.309,3.309,0,0,0,0-6.617H6.664c-.023-.61-.047-1.22-.047-1.854a35.3,35.3,0,0,1,.329-4.764H20.7a3.309,3.309,0,1,0,0-6.617H8.495A35.793,35.793,0,1,1,70.679,64.607,31.106,31.106,0,0,0,51.484,47.689Zm59.838,62.982a6.3,6.3,0,0,1-8.753.446L82.951,91.5a5.637,5.637,0,0,1,0-8.354,5.82,5.82,0,0,1,8.354,0l19.359,19.336C112.941,104.757,113.316,108.418,111.321,110.671Z" transform="translate(0 -0.288)" fill="#5d33d0"/>
    </g>
  </g>
  <g id="Group_13" data-name="Group 13" transform="translate(27.408 12.484)">
    <g id="Group_12" data-name="Group 12">
      <path id="Path_11" data-name="Path 11" d="M131.818,53.488a15.018,15.018,0,1,0,15.018,15.018A15.032,15.032,0,0,0,131.818,53.488Zm0,23.4a8.377,8.377,0,1,1,8.4-8.377A8.4,8.4,0,0,1,131.818,76.883Z" transform="translate(-116.8 -53.488)" fill="#5d33d0"/>
    </g>
  </g>
</svg>
