<svg id="Group_19" data-name="Group 19" xmlns="http://www.w3.org/2000/svg" width="70.213" height="119.107" viewBox="0 0 70.213 119.107">
  <g id="Group_16" data-name="Group 16" transform="translate(0 23.643)">
    <g id="Group_15" data-name="Group 15">
      <path id="Path_12" data-name="Path 12" d="M147.481,104.006h-1.667V89.728a3.464,3.464,0,0,0-.961-2.354L136.381,78.9a3.315,3.315,0,1,0-4.688,4.688L139.2,91.1v12.9h-3.844a25.375,25.375,0,0,0-16.788-20.652,3.294,3.294,0,0,0-3.883,1.393l-4.472,7.178-4.472-7.178a3.328,3.328,0,0,0-3.883-1.393,25.407,25.407,0,0,0-16.788,20.652H83.9a3.31,3.31,0,0,0-3.314,3.314v12.572a3.31,3.31,0,0,0,3.314,3.314H86.31c2.746,10.806,4.942,21.829,6.237,43.56H88.86a3.314,3.314,0,1,0,0,6.629h53.66a3.314,3.314,0,0,0,0-6.629h-3.687c1.295-21.731,3.491-32.753,6.237-43.56h2.412a3.31,3.31,0,0,0,3.314-3.314V107.32A3.323,3.323,0,0,0,147.481,104.006ZM101.607,90.63l5.786,9.277a3.313,3.313,0,0,0,5.609,0l5.786-9.277a18.775,18.775,0,0,1,9.885,13.4H91.7A18.8,18.8,0,0,1,101.607,90.63Zm30.6,76.117H99.136c-.235-4.178-.51-7.943-.824-11.414h4.217a3.314,3.314,0,0,0,0-6.629H97.646c-.235-2.079-.49-4.06-.745-5.923h11.9a3.314,3.314,0,1,0,0-6.629H95.86c-.843-4.766-1.785-8.9-2.785-12.984h45.148C135.6,133.9,133.439,145.232,132.2,166.747Zm11.964-50.189H87.153v-5.923h57.014v5.923Z" transform="translate(-80.583 -77.931)" fill="#5d33d0"/>
    </g>
  </g>
  <g id="Group_18" data-name="Group 18" transform="translate(17.376)">
    <g id="Group_17" data-name="Group 17">
      <path id="Path_13" data-name="Path 13" d="M150.077,0A12.219,12.219,0,1,0,162.3,12.219,12.246,12.246,0,0,0,150.077,0Zm0,17.808a5.609,5.609,0,1,1,5.609-5.609A5.608,5.608,0,0,1,150.077,17.808Z" transform="translate(-137.858)" fill="#5d33d0"/>
    </g>
  </g>
</svg>
