<svg xmlns="http://www.w3.org/2000/svg" xmlns:xlink="http://www.w3.org/1999/xlink" width="264.941" height="228" viewBox="0 0 264.941 228">
  <defs>
    <linearGradient id="linear-gradient" x1="0.5" y1="1" x2="0.5" gradientUnits="objectBoundingBox">
      <stop offset="0" stop-color="gray" stop-opacity="0.251"/>
      <stop offset="0.535" stop-color="gray" stop-opacity="0.122"/>
      <stop offset="1" stop-color="gray" stop-opacity="0.102"/>
    </linearGradient>
    <linearGradient id="linear-gradient-10" x1="0.5" y1="1" x2="0.5" y2="0" xlink:href="#linear-gradient"/>
  </defs>
  <g id="Group_1120" data-name="Group 1120" transform="translate(-16 -30.164)">
    <g id="Group_20" data-name="Group 20" transform="translate(66.398 62.828)">
      <path id="Path_308" data-name="Path 308" d="M400.379,168.189a82.631,82.631,0,0,1-1.086,13.394c-.059.366-.122.732-.187,1.1a82.3,82.3,0,0,1-45.611,59.75l-.343.163q-1.379.65-2.789,1.251c-.253.106-.5.212-.759.316a81.519,81.519,0,0,1-15.79,4.735c-.239.047-.479.09-.718.133a82.477,82.477,0,0,1-14.846,1.35h-.228q-.664,0-1.325-.016c-.084,0-.167,0-.251,0a82.442,82.442,0,0,1-14.776-1.639c-.237-.05-.474-.1-.711-.151a81.186,81.186,0,0,1-12.83-3.861c-.255-.1-.506-.2-.759-.3q-1.409-.566-2.789-1.188l-.343-.156a82.311,82.311,0,0,1-46.965-60.38c-.066-.366-.129-.732-.187-1.1a83.116,83.116,0,0,1-.009-26.73c.081-.508.169-1.018.264-1.524a81.045,81.045,0,0,1,2.642-10.486q.169-.525.345-1.05A82.214,82.214,0,0,1,399.038,153.33c.095.506.183,1.016.264,1.524A82.671,82.671,0,0,1,400.379,168.189Z" transform="translate(-236 -86)" fill="#4f44ff" opacity="0.1"/>
      <path id="Path_309" data-name="Path 309" d="M533.257,222.167h-.438c-.089,0-.31-.35-.31-.451v-.407c0-.318-.36-1.19-.677-1.19s-.677.872-.677,1.19v.407c0,.143-.111.451-.246.451h-.438c-.318,0-1.19.247-1.19.564s.872.565,1.19.565h.523c.166,0,.161.17.161.257v.543c0,.318.36,1.19.677,1.19s.677-.872.677-1.19v-.543c0-.072.145-.257.226-.257h.523c.318,0,1.19-.247,1.19-.565S533.574,222.167,533.257,222.167Z" transform="translate(-463.058 -189.835)" fill="#2196f3"/>
      <path id="Path_310" data-name="Path 310" d="M256.861,323.151h-.579c-.118,0-.41-.463-.41-.6v-.538c0-.42-.475-1.572-.895-1.572s-.895,1.152-.895,1.572v.538c0,.189-.146.6-.325.6h-.579c-.42,0-1.572.326-1.572.746s1.152.746,1.572.746h.691c.219,0,.213.225.213.34v.718c0,.42.475,1.572.895,1.572s.895-1.152.895-1.572v-.718c0-.1.192-.34.3-.34h.691c.42,0,1.572-.326,1.572-.746S257.28,323.151,256.861,323.151Z" transform="translate(-248.083 -267.509)" fill="url(#linear-gradient)"/>
      <path id="Path_311" data-name="Path 311" d="M530.861,219.151h-.579c-.118,0-.41-.463-.41-.6v-.538c0-.42-.475-1.572-.895-1.572s-.895,1.152-.895,1.572v.538c0,.189-.146.6-.325.6h-.579c-.42,0-1.572.326-1.572.746s1.152.746,1.572.746h.691c.219,0,.213.225.213.34v.718c0,.42.475,1.572.895,1.572s.895-1.152.895-1.572v-.718c0-.1.192-.34.3-.34h.691c.42,0,1.572-.326,1.572-.746S531.28,219.151,530.861,219.151Z" transform="translate(-460.215 -186.992)" fill="url(#linear-gradient)"/>
      <path id="Path_312" data-name="Path 312" d="M807.86,266.151h-.579c-.118,0-.41-.463-.41-.6v-.538c0-.42-.475-1.572-.895-1.572s-.895,1.152-.895,1.572v.538c0,.189-.146.6-.325.6h-.579c-.42,0-1.572.326-1.572.746s1.152.746,1.572.746h.691c.219,0,.213.225.213.34v.718c0,.42.475,1.572.895,1.572s.895-1.152.895-1.572v-.718c0-.1.192-.34.3-.34h.691c.42,0,1.572-.326,1.572-.746S808.28,266.151,807.86,266.151Z" transform="translate(-674.669 -223.379)" fill="url(#linear-gradient)"/>
      <path id="Path_313" data-name="Path 313" d="M707.114,254.721h-.279c-.057,0-.223-.221-.223-.285v-.26c0-.2-.249-.758-.452-.758s-.452.556-.452.758v.26c0,.091-.005.285-.091.285h-.279c-.2,0-.758.136-.758.339s.556.339.758.339h.333c.105,0,.037.153.037.208v.346c0,.2.249.758.452.758s.452-.556.452-.758v-.346c0-.046.118-.208.169-.208h.333c.2,0,.758-.136.758-.339S707.316,254.721,707.114,254.721Z" transform="translate(-598.776 -215.616)" fill="#1976d2"/>
      <path id="Path_314" data-name="Path 314" d="M354.117,307.948h-.455c-.093,0-.364-.36-.364-.465v-.423c0-.33-.406-1.236-.736-1.236s-.736.906-.736,1.236v.423c0,.149-.008.465-.149.465h-.455c-.33,0-1.236.222-1.236.552s.906.552,1.236.552h.543c.172,0,.061.249.061.339v.564c0,.33.406,1.236.736,1.236s.736-.906.736-1.236v-.564c0-.075.193-.339.276-.339h.543c.33,0,1.236-.222,1.236-.552S354.447,307.948,354.117,307.948Z" transform="translate(-324.248 -256.189)" fill="url(#linear-gradient)"/>
      <path id="Path_315" data-name="Path 315" d="M704.117,250.948h-.455c-.093,0-.364-.36-.364-.465v-.423c0-.33-.406-1.236-.736-1.236s-.736.906-.736,1.236v.423c0,.149-.008.465-.149.465h-.455c-.33,0-1.236.222-1.236.552s.906.552,1.236.552h.543c.172,0,.061.249.061.339v.564c0,.33.406,1.236.736,1.236s.736-.906.736-1.236v-.564c0-.075.193-.339.276-.339h.543c.33,0,1.236-.222,1.236-.552S704.447,250.948,704.117,250.948Z" transform="translate(-595.219 -212.059)" fill="url(#linear-gradient)"/>
      <path id="Path_316" data-name="Path 316" d="M357.114,311.721h-.279c-.057,0-.223-.221-.223-.285v-.26c0-.2-.249-.758-.452-.758s-.452.556-.452.758v.26c0,.091-.005.285-.091.285h-.279c-.2,0-.758.136-.758.339s.556.339.758.339h.333c.105,0,.038.153.038.208v.346c0,.2.249.758.452.758s.452-.556.452-.758v-.346c0-.046.118-.208.169-.208h.333c.2,0,.758-.136.758-.339S357.316,311.721,357.114,311.721Z" transform="translate(-327.804 -259.746)" fill="#1976d2"/>
      <circle id="Ellipse_65" data-name="Ellipse 65" cx="1.693" cy="1.693" r="1.693" transform="translate(91.804 32.106)" fill="#64b5f6"/>
      <circle id="Ellipse_66" data-name="Ellipse 66" cx="0.564" cy="0.564" r="0.564" transform="translate(89.546 49.341)" fill="#0071bc"/>
      <circle id="Ellipse_67" data-name="Ellipse 67" cx="1.571" cy="1.571" r="1.571" transform="translate(24.743 35.493)" fill="#64b5f6"/>
      <circle id="Ellipse_68" data-name="Ellipse 68" cx="0.786" cy="0.786" r="0.786" transform="translate(11.646 42.224)" fill="#64b5f6"/>
      <circle id="Ellipse_69" data-name="Ellipse 69" cx="0.786" cy="0.786" r="0.786" transform="translate(76.449 58.256)" fill="#82a9ff"/>
      <circle id="Ellipse_70" data-name="Ellipse 70" cx="1.468" cy="1.468" r="1.468" transform="translate(17.357 71.601)" fill="#82a9ff"/>
      <circle id="Ellipse_71" data-name="Ellipse 71" cx="1.371" cy="1.371" r="1.371" transform="translate(46.563 32.25)" fill="url(#linear-gradient)"/>
      <circle id="Ellipse_72" data-name="Ellipse 72" cx="1.371" cy="1.371" r="1.371" transform="translate(46.789 49.41)" fill="url(#linear-gradient)"/>
      <circle id="Ellipse_73" data-name="Ellipse 73" cx="1.371" cy="1.371" r="1.371" transform="translate(118.817 28.637)" fill="url(#linear-gradient)"/>
      <circle id="Ellipse_74" data-name="Ellipse 74" cx="1.371" cy="1.371" r="1.371" transform="translate(150.203 53.023)" fill="url(#linear-gradient)"/>
      <circle id="Ellipse_75" data-name="Ellipse 75" cx="0.837" cy="0.837" r="0.837" transform="translate(47.096 32.783)" fill="#0d47a1"/>
      <circle id="Ellipse_76" data-name="Ellipse 76" cx="1.693" cy="1.693" r="1.693" transform="translate(67.192 44.299)" fill="#64b5f6"/>
      <path id="Path_317" data-name="Path 317" d="M321.027,456.37l-19.368.4-5.362-6.163,28.874-.52Z" transform="translate(-229.395 -348.46)" fill="#e0e0e0"/>
      <path id="Path_318" data-name="Path 318" d="M325.171,439.726H296.3l5.763-3.082,16.967-.56Z" transform="translate(-229.395 -337.618)" fill="#e0e0e0"/>
      <path id="Path_319" data-name="Path 319" d="M504.23,548.047a16.148,16.148,0,0,1-1.47,5.731c-.113.271-.228.54-.343.806l-.359.813a16.973,16.973,0,0,1-2.258,4.051c-.057.068-.113.135-.172.2a7.057,7.057,0,0,1-.759.734,5.19,5.19,0,0,1-3.014,1.28c-2.154.113-4.021-1.389-5.652-2.8q-2.916-2.527-5.832-5.06-1-.867-2.005-1.739c-.142-.122-.284-.246-.427-.37v27.606h-.5l.3,4.676.623,9.786a82.486,82.486,0,0,1-14.846,1.35l-.411-11.12-.117-3.168-.056-1.524h-.465l-.041.829-.183,3.863-.531,11.1a82.424,82.424,0,0,1-14.776-1.639l.589-9.463.294-4.69h-.291V551.242a24.463,24.463,0,0,1-2.872,3.17,62.466,62.466,0,0,1-6.668,5.214,14.226,14.226,0,0,1-4.593,2.4,5.939,5.939,0,0,1-.759.133,4.605,4.605,0,0,1-2.111-.228,4.217,4.217,0,0,1-.677-.312c-.12-.065-.232-.135-.343-.21-1.691-1.154-2.581-3.367-3.279-5.378-.845-2.439-1.7-4.992-1.344-7.548a11.607,11.607,0,0,1,1.673-4.315c.549-.914,1.172-1.8,1.788-2.658a2.309,2.309,0,0,1,1.124-.987h0l.034-.007a.9.9,0,0,1,.174-.025,1.4,1.4,0,0,1,.169,0,2.245,2.245,0,0,1,1.213.783l1.576,1.624.759.779c.041.043.081.086.124.129l1,1.03c.653-1.127,1.31-2.26,2-3.369a29.159,29.159,0,0,1,4.925-6.2,16.352,16.352,0,0,1,3.209-2.3,13.48,13.48,0,0,1,3.19-1.262,5.57,5.57,0,0,1,2.892-.237,1.6,1.6,0,0,1,1,1.35.067.067,0,0,1,0,.023,6.318,6.318,0,0,1,.1,1.208c0,.251,0,.5,0,.754H477.3c-.02-.65-.038-1.364,0-1.962.007-.145.018-.282.032-.411a1.7,1.7,0,0,1,.244-.842,1.067,1.067,0,0,1,.833-.312,10.227,10.227,0,0,1,3.118.905,20.532,20.532,0,0,1,2.849,1.328,20.892,20.892,0,0,1,9.578,11.339,4.416,4.416,0,0,1,.836-1.628,5.039,5.039,0,0,1,.9-.872,5.5,5.5,0,0,1,1.793-.9,5.066,5.066,0,0,1,1.4-.214,4.483,4.483,0,0,1,.759.05,4.289,4.289,0,0,1,1.176.345,5.1,5.1,0,0,1,1.612,1.183c.122.131.235.266.343.406a7.259,7.259,0,0,1,1.337,3.127A8.087,8.087,0,0,1,504.23,548.047Z" transform="translate(-385.265 -430.728)" fill="#fff"/>
      <path id="Path_320" data-name="Path 320" d="M557.454,425.215h-2.89c-1.7-6.018-7-10.885-13.27-10.885s-11.568,4.866-13.27,10.885h-2.817v6.243h2.41c1.038,6.546,6.765,10.885,13.677,10.885s12.639-4.339,13.677-10.885h2.483Z" transform="translate(-459.906 -340.195)" fill="#fff"/>
      <circle id="Ellipse_77" data-name="Ellipse 77" cx="11.205" cy="11.205" r="11.205" transform="translate(70.104 77.977)" fill="#4f44ff"/>
      <path id="Path_321" data-name="Path 321" d="M741.369,367.8a2.867,2.867,0,0,1-1.059,2.229v88.351l-.343.163q-1.378.65-2.788,1.251c-.253.106-.5.212-.759.316V369.777a2.87,2.87,0,1,1,4.949-1.978Z" transform="translate(-622.815 -301.948)" fill="url(#linear-gradient-10)"/>
      <path id="Path_322" data-name="Path 322" d="M742.221,369a2.5,2.5,0,0,1-.481,1.479,2.46,2.46,0,0,1-.551.553.128.128,0,0,1-.02.016v88.695q-1.379.65-2.789,1.251V371.144A2.52,2.52,0,1,1,742.221,369Z" transform="translate(-624.017 -303.148)" fill="#e0e0e0"/>
      <path id="Path_323" data-name="Path 323" d="M802.137,377.818a55.019,55.019,0,0,1-1.086,11.675c-15.374-22.593-30.747,27.834-46.121,1.719v-26.73c15.377,26.12,30.753-24.332,46.13-1.706A117.233,117.233,0,0,1,802.137,377.818Z" transform="translate(-637.758 -295.629)" fill="#5d33d0"/>
      <path id="Path_324" data-name="Path 324" d="M450.69,367.8a2.822,2.822,0,0,1-.135.867,2.865,2.865,0,0,1-.657,1.111v90.878c-.255-.1-.506-.2-.759-.3q-1.409-.566-2.789-1.188l-.343-.156V370.027a2.871,2.871,0,1,1,4.683-2.229Z" transform="translate(-397.768 -301.948)" fill="url(#linear-gradient)"/>
      <path id="Path_325" data-name="Path 325" d="M451.547,369a2.489,2.489,0,0,1-.851,1.883,2.315,2.315,0,0,1-.35.262v90.408q-1.409-.566-2.789-1.188V371.047a.126.126,0,0,1-.02-.016,2.463,2.463,0,0,1-.551-.553A2.52,2.52,0,1,1,451.547,369Z" transform="translate(-398.975 -303.148)" fill="#e0e0e0"/>
      <path id="Path_326" data-name="Path 326" d="M284.562,364.483v26.73c-15.825-26.132-31.65,24.379-47.476,1.675A116.345,116.345,0,0,1,236,377.818a55.75,55.75,0,0,1,1.077-11.674C252.905,388.881,268.734,338.346,284.562,364.483Z" transform="translate(-236 -295.629)" fill="#5d33d0"/>
      <path id="Path_327" data-name="Path 327" d="M559.094,433.814a11.186,11.186,0,0,1,8.945,4.458,11.205,11.205,0,1,0-19.305,11.018,11.207,11.207,0,0,1,10.36-15.476Z" transform="translate(-476.371 -353.362)" opacity="0.2"/>
      <path id="Path_328" data-name="Path 328" d="M405.757,333.167h-.438c-.089,0-.31-.35-.31-.451v-.407c0-.318-.359-1.19-.677-1.19s-.677.872-.677,1.19v.407c0,.143-.111.451-.246.451h-.438c-.318,0-1.19.247-1.19.564s.872.564,1.19.564h.523c.166,0,.161.17.161.257v.543c0,.318.36,1.19.677,1.19s.677-.872.677-1.19v-.543c0-.072.145-.257.226-.257h.523c.318,0,1.19-.247,1.19-.564S406.075,333.167,405.757,333.167Z" transform="translate(-364.347 -275.772)" fill="#2196f3"/>
      <circle id="Ellipse_78" data-name="Ellipse 78" cx="0.79" cy="0.79" r="0.79" transform="translate(59.402 72.373)" fill="#0d47a1"/>
      <circle id="Ellipse_79" data-name="Ellipse 79" cx="1.571" cy="1.571" r="1.571" transform="translate(144.301 56.266)" fill="#64b5f6"/>
      <circle id="Ellipse_80" data-name="Ellipse 80" cx="0.564" cy="0.564" r="0.564" transform="translate(85.368 68.76)" fill="#0071bc"/>
      <circle id="Ellipse_81" data-name="Ellipse 81" cx="0.837" cy="0.837" r="0.837" transform="translate(47.322 49.944)" fill="#0d47a1"/>
      <path id="Path_329" data-name="Path 329" d="M810.257,269.167h-.438c-.089,0-.31-.35-.31-.451v-.407c0-.318-.36-1.19-.677-1.19s-.677.872-.677,1.19v.407c0,.143-.111.451-.246.451h-.438c-.318,0-1.19.247-1.19.564s.872.564,1.19.564h.523c.166,0,.161.17.161.257v.543c0,.318.359,1.19.677,1.19s.677-.872.677-1.19v-.543c0-.072.145-.257.226-.257h.523c.318,0,1.19-.247,1.19-.564S810.575,269.167,810.257,269.167Z" transform="translate(-677.513 -226.223)" fill="#2196f3"/>
      <circle id="Ellipse_82" data-name="Ellipse 82" cx="0.79" cy="0.79" r="0.79" transform="translate(150.736 53.406)" fill="#0d47a1"/>
      <circle id="Ellipse_83" data-name="Ellipse 83" cx="0.79" cy="0.79" r="0.79" transform="translate(119.351 29.246)" fill="#0d47a1"/>
      <circle id="Ellipse_84" data-name="Ellipse 84" cx="2.1" cy="2.1" r="2.1" transform="translate(141.176 50.318)" fill="url(#linear-gradient)"/>
      <circle id="Ellipse_85" data-name="Ellipse 85" cx="2.1" cy="2.1" r="2.1" transform="translate(110.694 54.157)" fill="url(#linear-gradient)"/>
      <circle id="Ellipse_86" data-name="Ellipse 86" cx="2.1" cy="2.1" r="2.1" transform="translate(91.501 31.803)" fill="url(#linear-gradient)"/>
      <circle id="Ellipse_87" data-name="Ellipse 87" cx="2.1" cy="2.1" r="2.1" transform="translate(66.889 43.996)" fill="url(#linear-gradient)"/>
      <circle id="Ellipse_88" data-name="Ellipse 88" cx="2.1" cy="2.1" r="2.1" transform="translate(24.214 34.964)" fill="url(#linear-gradient)"/>
      <circle id="Ellipse_89" data-name="Ellipse 89" cx="2.1" cy="2.1" r="2.1" transform="translate(16.763 70.866)" fill="url(#linear-gradient)"/>
      <circle id="Ellipse_90" data-name="Ellipse 90" cx="1.135" cy="1.135" r="1.135" transform="translate(135.71 29.005)" fill="url(#linear-gradient)"/>
      <circle id="Ellipse_91" data-name="Ellipse 91" cx="1.135" cy="1.135" r="1.135" transform="translate(76.1 57.907)" fill="url(#linear-gradient)"/>
      <circle id="Ellipse_92" data-name="Ellipse 92" cx="1.135" cy="1.135" r="1.135" transform="translate(11.297 41.875)" fill="url(#linear-gradient)"/>
      <circle id="Ellipse_93" data-name="Ellipse 93" cx="1.135" cy="1.135" r="1.135" transform="translate(25.974 70.551)" fill="url(#linear-gradient)"/>
      <circle id="Ellipse_94" data-name="Ellipse 94" cx="1.135" cy="1.135" r="1.135" transform="translate(51.714 66.713)" fill="url(#linear-gradient)"/>
      <circle id="Ellipse_95" data-name="Ellipse 95" cx="1.135" cy="1.135" r="1.135" transform="translate(88.971 48.875)" fill="url(#linear-gradient)"/>
      <circle id="Ellipse_96" data-name="Ellipse 96" cx="0.786" cy="0.786" r="0.786" transform="translate(136.059 29.354)" fill="#82a9ff"/>
      <circle id="Ellipse_97" data-name="Ellipse 97" cx="1.468" cy="1.468" r="1.468" transform="translate(141.77 51.054)" fill="#64b5f6"/>
      <ellipse id="Ellipse_98" data-name="Ellipse 98" cx="6.548" cy="1.129" rx="6.548" ry="1.129" transform="translate(74.287 92.576)" opacity="0.2"/>
      <circle id="Ellipse_99" data-name="Ellipse 99" cx="5.193" cy="5.193" r="5.193" transform="translate(44.933 106.35)" fill="#5d33d0"/>
      <circle id="Ellipse_100" data-name="Ellipse 100" cx="5.193" cy="5.193" r="5.193" transform="translate(110.414 106.35)" fill="#5d33d0"/>
      <rect id="Rectangle_77" data-name="Rectangle 77" width="0.903" height="14.225" transform="translate(73.383 64.803)" fill="#fff"/>
      <rect id="Rectangle_78" data-name="Rectangle 78" width="0.903" height="14.225" transform="translate(89.867 65.932)" fill="#fff"/>
    </g>
    <g id="Group_14" data-name="Group 14" transform="translate(16 36.505)">
      <path id="Path_146" data-name="Path 146" d="M327.092,109.358a1.133,1.133,0,0,1-.631-1.369.546.546,0,0,0,.025-.126h0a.568.568,0,0,0-1.021-.376h0a.544.544,0,0,0-.063.112,1.133,1.133,0,0,1-1.369.631.543.543,0,0,0-.126-.025h0a.568.568,0,0,0-.377,1.021h0a.545.545,0,0,0,.112.063,1.133,1.133,0,0,1,.631,1.369.543.543,0,0,0-.025.126h0a.568.568,0,0,0,1.021.376h0a.548.548,0,0,0,.063-.112,1.133,1.133,0,0,1,1.369-.631.544.544,0,0,0,.126.025h0a.568.568,0,0,0,.376-1.021h0A.545.545,0,0,0,327.092,109.358Z" transform="translate(-276.137 -94.574)" fill="#4d8af0" opacity="0.5"/>
      <path id="Path_147" data-name="Path 147" d="M181.092,434.358a1.133,1.133,0,0,1-.631-1.369.546.546,0,0,0,.025-.126h0a.568.568,0,0,0-1.021-.376h0a.548.548,0,0,0-.063.112,1.133,1.133,0,0,1-1.369.631.543.543,0,0,0-.126-.025h0a.568.568,0,0,0-.376,1.021h0a.545.545,0,0,0,.112.063,1.133,1.133,0,0,1,.631,1.369.546.546,0,0,0-.025.126h0a.568.568,0,0,0,1.021.377h0a.546.546,0,0,0,.063-.112,1.133,1.133,0,0,1,1.369-.631.546.546,0,0,0,.126.025h0a.568.568,0,0,0,.376-1.021h0A.547.547,0,0,0,181.092,434.358Z" transform="translate(-175.147 -319.38)" fill="#4d8af0" opacity="0.5"/>
      <circle id="Ellipse_36" data-name="Ellipse 36" cx="1.85" cy="1.85" r="1.85" transform="translate(228.871 76.455)" fill="#f55f44" opacity="0.5"/>
      <circle id="Ellipse_37" data-name="Ellipse 37" cx="1.85" cy="1.85" r="1.85" transform="translate(35.575 208.711)" fill="#f55f44" opacity="0.5"/>
      <circle id="Ellipse_38" data-name="Ellipse 38" cx="1.85" cy="1.85" r="1.85" transform="translate(260.316 147.67)" fill="#f55f44" opacity="0.5"/>
      <path id="Path_148" data-name="Path 148" d="M866.092,138.358a1.133,1.133,0,0,1-.631-1.369.544.544,0,0,0,.025-.126h0a.568.568,0,0,0-1.021-.376h0a.543.543,0,0,0-.063.112,1.133,1.133,0,0,1-1.369.631.544.544,0,0,0-.126-.025h0a.568.568,0,0,0-.376,1.021h0a.547.547,0,0,0,.111.063,1.133,1.133,0,0,1,.631,1.369.55.55,0,0,0-.025.126h0a.568.568,0,0,0,1.021.376h0a.54.54,0,0,0,.063-.112,1.133,1.133,0,0,1,1.369-.631.542.542,0,0,0,.126.025h0a.568.568,0,0,0,.376-1.021h0A.543.543,0,0,0,866.092,138.358Z" transform="translate(-648.97 -114.634)" fill="#4d8af0" opacity="0.5"/>
      <path id="Path_149" data-name="Path 149" d="M966.092,766.358a1.133,1.133,0,0,1-.631-1.369.544.544,0,0,0,.025-.126h0a.568.568,0,0,0-1.021-.376h0a.548.548,0,0,0-.063.111,1.133,1.133,0,0,1-1.369.631.547.547,0,0,0-.126-.025h0a.568.568,0,0,0-.376,1.021h0a.548.548,0,0,0,.111.063,1.133,1.133,0,0,1,.631,1.369.548.548,0,0,0-.025.126h0a.568.568,0,0,0,1.021.377h0a.542.542,0,0,0,.063-.112,1.133,1.133,0,0,1,1.369-.631.545.545,0,0,0,.126.024h0a.568.568,0,0,0,.376-1.02h0a.544.544,0,0,0-.112-.063Z" transform="translate(-718.141 -549.029)" fill="#4d8af0" opacity="0.5"/>
      <path id="Path_150" data-name="Path 150" d="M174.092,244.358a1.133,1.133,0,0,1-.631-1.369.546.546,0,0,0,.025-.126h0a.568.568,0,0,0-1.021-.376h0a.544.544,0,0,0-.063.112,1.133,1.133,0,0,1-1.369.631.544.544,0,0,0-.126-.025h0a.568.568,0,0,0-.376,1.021h0a.544.544,0,0,0,.112.063,1.133,1.133,0,0,1,.631,1.369.543.543,0,0,0-.025.126h0a.568.568,0,0,0,1.021.376h0a.544.544,0,0,0,.063-.112,1.133,1.133,0,0,1,1.369-.631.543.543,0,0,0,.126.025h0a.568.568,0,0,0,.376-1.021h0A.545.545,0,0,0,174.092,244.358Z" transform="translate(-170.305 -187.955)" fill="#4d8af0" opacity="0.5"/>
      <circle id="Ellipse_39" data-name="Ellipse 39" cx="1.85" cy="1.85" r="1.85" transform="translate(22.627 85.704)" fill="#47e6b1" opacity="0.5"/>
      <circle id="Ellipse_40" data-name="Ellipse 40" cx="1.85" cy="1.85" r="1.85" transform="translate(261.241 100.502)" fill="#47e6b1" opacity="0.5"/>
      <g id="Group_9" data-name="Group 9" transform="translate(177.695)" opacity="0.5">
        <rect id="Rectangle_58" data-name="Rectangle 58" width="0.925" height="5.241" transform="translate(2.158)" fill="#47e6b1"/>
        <rect id="Rectangle_59" data-name="Rectangle 59" width="0.925" height="5.241" transform="translate(5.241 2.158) rotate(90)" fill="#47e6b1"/>
      </g>
      <g id="Group_10" data-name="Group 10" transform="translate(181.087 205.319)" opacity="0.5">
        <rect id="Rectangle_60" data-name="Rectangle 60" width="0.925" height="5.241" transform="translate(2.158)" fill="#47e6b1"/>
        <rect id="Rectangle_61" data-name="Rectangle 61" width="0.925" height="5.241" transform="translate(5.241 2.158) rotate(90)" fill="#47e6b1"/>
      </g>
      <g id="Group_11" data-name="Group 11" transform="translate(5.979 216.418)" opacity="0.5">
        <rect id="Rectangle_62" data-name="Rectangle 62" width="0.925" height="5.241" transform="translate(2.158)" fill="#47e6b1"/>
        <rect id="Rectangle_63" data-name="Rectangle 63" width="0.925" height="5.241" transform="translate(5.241 2.158) rotate(90)" fill="#47e6b1"/>
      </g>
      <g id="Group_12" data-name="Group 12" transform="translate(216.54 122.082)" opacity="0.5">
        <rect id="Rectangle_64" data-name="Rectangle 64" width="0.925" height="5.241" transform="translate(2.158)" fill="#47e6b1"/>
        <rect id="Rectangle_65" data-name="Rectangle 65" width="0.925" height="5.241" transform="translate(5.241 2.158) rotate(90)" fill="#47e6b1"/>
      </g>
      <path id="Path_151" data-name="Path 151" d="M793.749,117.818l1.986,1.821,2.814-4.138.993.828-3.807,4.966-2.814-3.145Z" transform="translate(-548.475 -79.893)" fill="#47e6b1" opacity="0.5"/>
    </g>
    <g id="_023-lock" data-name="023-lock" transform="translate(121.589 30.164)">
      <g id="Group_49" data-name="Group 49" transform="translate(0 0)">
        <g id="Group_48" data-name="Group 48">
          <path id="Path_473" data-name="Path 473" d="M111.576,8.155,88.687.076a1.337,1.337,0,0,0-.894,0L64.9,8.155a1.348,1.348,0,0,0-.9,1.27V25.582c0,20.909,3.1,28.551,23.628,38.9a1.348,1.348,0,0,0,1.215,0c20.528-10.351,23.628-17.993,23.628-38.9V9.425A1.349,1.349,0,0,0,111.576,8.155Z" transform="translate(-64.004 0.001)" fill="#5d33d0"/>
          <path id="Path_474" data-name="Path 474" d="M192,136.084a8.059,8.059,0,0,0,2.922,6.213l-1.562,11.1a1.348,1.348,0,0,0,1.333,1.535h10.771A1.348,1.348,0,0,0,206.8,153.4l-1.562-11.1A8.077,8.077,0,1,0,192,136.084Zm13.464,0a5.383,5.383,0,0,1-2.417,4.489,1.35,1.35,0,0,0-.589,1.31l1.457,10.358h-7.674l1.457-10.358a1.35,1.35,0,0,0-.589-1.31,5.384,5.384,0,1,1,8.355-4.489Z" transform="translate(-175.846 -111.847)" fill="#fff"/>
        </g>
      </g>
    </g>
    <g id="Group_1119" data-name="Group 1119" transform="translate(149.516 68.587)">
      <circle id="Ellipse_101" data-name="Ellipse 101" cx="10.08" cy="10.08" r="10.08" transform="translate(2.946 2.543)" fill="#fff"/>
      <path id="Path_472" data-name="Path 472" d="M546.416,422.713a13.1,13.1,0,1,1-13.1-13.1A13.1,13.1,0,0,1,546.416,422.713ZM531.8,429.649l9.72-9.72a.844.844,0,0,0,0-1.2l-1.2-1.187a.843.843,0,0,0-1.194,0l-7.927,7.928-3.7-3.71a.848.848,0,0,0-1.2,0l-1.2,1.2a.848.848,0,0,0,0,1.2l5.5,5.494a.844.844,0,0,0,1.2,0Z" transform="translate(-520.21 -409.61)" fill="#3acc6c"/>
    </g>
  </g>
</svg>
