<svg xmlns="http://www.w3.org/2000/svg" width="613.137" height="304.547" viewBox="0 0 613.137 304.547">
  <g id="Group_446" data-name="Group 446" transform="translate(-2253.188 515)">
    <g id="Group_209" data-name="Group 209" transform="translate(2064.554 -1074.998)">
      <rect id="Rectangle_97" data-name="Rectangle 97" width="133.019" height="133.019" rx="13.18" transform="translate(554.431 607.902)" fill="#e2daf6"/>
    </g>
    <g id="Group_211" data-name="Group 211" transform="translate(2064.554 -1074.998)">
      <path id="Path_3997" data-name="Path 3997" d="M254.984,860.5V825.664L230.6,824.5l-8.8-5.6-1.02-6.011-1.488-26.307-15.791-.66-1.056-4.084,4.833-9.507H222.47l18.55-9.66,11.593-1.167,2.333-7.833,27.5,13.776,3.5,8.316,12,10.159,11-.251,12.155-7.229L326.625,767l-2.789-13.914h18.443L340.746,765.5l-10.651,26.167L311.6,819v40.777Z" fill="#e2daf6"/>
    </g>
    <g id="Group_212" data-name="Group 212" transform="translate(2064.554 -1074.998)">
      <path id="Path_3998" data-name="Path 3998" d="M254.984,730.974h85.762l-4.269-17.121L323.2,696.174,301.3,685.99l-20.351-3.3-32,6.639L233.7,700.474s-7.5,8.44-11.127,14.274l13.353,7.334,9.024,4.249,9.62-.278Z" fill="#e2daf6"/>
    </g>
    <g id="Group_213" data-name="Group 213" transform="translate(2064.554 -1074.998)">
      <path id="Path_3999" data-name="Path 3999" d="M349.314,740.683H268.861l18.367,9.427,12.218-6.729H311.6l12.24,9.7h25.289Z" fill="#5d33d0"/>
    </g>
    <g id="Group_214" data-name="Group 214" transform="translate(2064.554 -1074.998)">
      <path id="Path_4000" data-name="Path 4000" d="M255.946,740.683l28.217,14.594L282.447,766.5l-26.5-12.332Z" fill="#5d33d0"/>
    </g>
    <g id="Group_215" data-name="Group 215" transform="translate(2064.554 -1074.998)">
      <circle id="Ellipse_31" data-name="Ellipse 31" cx="18.75" cy="18.75" r="18.75" transform="translate(288.578 747.748)" fill="#5d33d0"/>
    </g>
    <g id="Group_216" data-name="Group 216" transform="translate(2064.554 -1074.998)">
      <circle id="Ellipse_32" data-name="Ellipse 32" cx="12.441" cy="12.441" r="12.441" transform="translate(292.361 757.248) rotate(-13.283)" fill="#ab8cff"/>
    </g>
    <g id="Group_217" data-name="Group 217" transform="translate(2064.554 -1074.998)">
      <rect id="Rectangle_99" data-name="Rectangle 99" width="14.542" height="56.743" transform="translate(207.279 715.581)" fill="#6c52b2"/>
    </g>
    <g id="Group_218" data-name="Group 218" transform="translate(2064.554 -1074.998)">
      <path id="Path_4001" data-name="Path 4001" d="M220.071,771.363l21.862-7.7V725.382l-21.862-10.689Z" fill="#6c52b2"/>
    </g>
    <g id="Group_219" data-name="Group 219" transform="translate(2064.554 -1074.998)">
      <rect id="Rectangle_100" data-name="Rectangle 100" width="6.609" height="33.76" transform="translate(248.002 726.588)" fill="#6c52b2"/>
    </g>
    <g id="Group_220" data-name="Group 220" transform="translate(2064.554 -1074.998)">
      <path id="Path_4002" data-name="Path 4002" d="M550.058,760.711l13.452-1.293-1.224-110.564-12.228-8.6Z" fill="#5d33d0"/>
    </g>
    <g id="Group_221" data-name="Group 221" transform="translate(2064.554 -1074.998)">
      <path id="Path_4003" data-name="Path 4003" d="M525.6,624.08V751.15h12.228V636.369l-3.731-9.1Z" fill="#5d33d0"/>
    </g>
    <g id="Group_222" data-name="Group 222" transform="translate(2064.554 -1074.998)">
      <path id="Path_4004" data-name="Path 4004" d="M501.147,610.4V747.83h12.228V617.107l-7.729-5.881Z" fill="#5d33d0"/>
    </g>
    <g id="Group_223" data-name="Group 223" transform="translate(2064.554 -1074.998)">
      <path id="Path_4005" data-name="Path 4005" d="M476.69,622.81V746.883h12.228V632.075L482.8,624.08Z" fill="#5d33d0"/>
    </g>
    <g id="Group_224" data-name="Group 224" transform="translate(2064.554 -1074.998)">
      <path id="Path_4006" data-name="Path 4006" d="M562.585,700.481H464.446v37.85s-1.667,8.167-12.333,11.333a34.425,34.425,0,0,1-20-.333l-14.829,20.948,54.495,47.885h81.262l9.476-67.014Z" fill="#e2daf6"/>
    </g>
    <g id="Group_227" data-name="Group 227" transform="translate(2064.554 -1074.998)">
      <path id="Path_4007" data-name="Path 4007" d="M455.352,747.829s25.524,39.031,4.684,60.016l-42.752-37.566,15.234-22.45S440.008,757.328,455.352,747.829Z" fill="#5d33d0"/>
    </g>
    <g id="Group_228" data-name="Group 228" transform="translate(2064.554 -1074.998)">
      <path id="Path_4008" data-name="Path 4008" d="M416.2,769.657,370.065,733.68s-7.5-11.266,3.443-18.932,18.37,4.906,18.37,4.906l40.235,29.677Z" fill="#e2daf6"/>
    </g>
    <g id="Group_230" data-name="Group 230" transform="translate(2064.554 -1074.998)">
      <path id="Path_4009" data-name="Path 4009" d="M471.081,860.5V818.164h81.96v41.662Z" fill="#5d33d0"/>
    </g>
    <g id="Group_231" data-name="Group 231" transform="translate(2064.554 -1074.998)">
      <circle id="Ellipse_34" data-name="Ellipse 34" cx="11.391" cy="11.391" r="11.391" transform="translate(612.113 848.435) rotate(-45)" fill="#e2daf6"/>
    </g>
    <g id="Group_232" data-name="Group 232" transform="translate(2064.554 -1074.998)">
      <circle id="Ellipse_35" data-name="Ellipse 35" cx="11.391" cy="11.391" r="11.391" transform="translate(663.845 848.435) rotate(-45)" fill="#e2daf6"/>
    </g>
    <g id="Group_233" data-name="Group 233" transform="translate(2064.554 -1074.998)">
      <path id="Path_4010" data-name="Path 4010" d="M700.091,841.444H606.223V770.452a46.465,46.465,0,0,1,46.465-46.464h.938a46.465,46.465,0,0,1,46.465,46.464Z" fill="#6c52b2"/>
    </g>
    <g id="Group_234" data-name="Group 234" transform="translate(2064.554 -1074.998)">
      <rect id="Rectangle_103" data-name="Rectangle 103" width="64.432" height="24.387" rx="12.071" transform="translate(620.941 760.387)" fill="#ab8cff"/>
    </g>
    <g id="Group_235" data-name="Group 235" transform="translate(2064.554 -1074.998)">
      <path id="Path_4011" data-name="Path 4011" d="M373.511,694.416a29.665,29.665,0,0,0,0-23.448V601.229a14.263,14.263,0,1,0-26.371-9.694,25.012,25.012,0,0,0-27.74,37.673,28.542,28.542,0,0,0-2.724,53.424c0,.021,0,.04,0,.06a29.626,29.626,0,0,0,56.2,13.09l.632.392Z" fill="#e2daf6"/>
    </g>
    <g id="Group_236" data-name="Group 236" transform="translate(2064.554 -1074.998)">
      <circle id="Ellipse_36" data-name="Ellipse 36" cx="9.41" cy="9.41" r="9.41" transform="translate(319.189 650.482) rotate(-9.217)" fill="#fff"/>
    </g>
    <g id="Group_237" data-name="Group 237" transform="translate(2064.554 -1074.998)">
      <circle id="Ellipse_37" data-name="Ellipse 37" cx="7.743" cy="7.743" r="7.743" transform="matrix(0.987, -0.16, 0.16, 0.987, 392.771, 583.07)" fill="#6c52b2"/>
    </g>
    <g id="Group_238" data-name="Group 238" transform="translate(2064.554 -1074.998)">
      <circle id="Ellipse_38" data-name="Ellipse 38" cx="8.839" cy="8.839" r="8.839" transform="translate(415.3 619.835) rotate(-67.5)" fill="#6c52b2"/>
    </g>
    <g id="Group_239" data-name="Group 239" transform="translate(2064.554 -1074.998)">
      <circle id="Ellipse_39" data-name="Ellipse 39" cx="10.758" cy="10.758" r="10.758" transform="translate(433.495 655.654) rotate(-13.283)" fill="#6c52b2"/>
    </g>
    <g id="Group_240" data-name="Group 240" transform="translate(2064.554 -1074.998)">
      <circle id="Ellipse_40" data-name="Ellipse 40" cx="8.356" cy="8.356" r="8.356" transform="matrix(0.973, -0.23, 0.23, 0.973, 410.427, 702.624)" fill="#6c52b2"/>
    </g>
    <g id="Group_241" data-name="Group 241" transform="translate(2064.554 -1074.998)">
      <circle id="Ellipse_41" data-name="Ellipse 41" cx="9.322" cy="9.322" r="9.322" transform="translate(342.634 785.248)" fill="#6c52b2"/>
    </g>
    <g id="Group_242" data-name="Group 242" transform="translate(2064.554 -1074.998)">
      <circle id="Ellipse_42" data-name="Ellipse 42" cx="9.322" cy="9.322" r="9.322" transform="translate(418.301 786.218)" fill="#6c52b2"/>
    </g>
    <g id="Group_243" data-name="Group 243" transform="translate(2064.554 -1074.998)">
      <circle id="Ellipse_43" data-name="Ellipse 43" cx="9.322" cy="9.322" r="9.322" transform="translate(379.892 810.788)" fill="#6c52b2"/>
    </g>
    <g id="Group_244" data-name="Group 244" transform="translate(2064.554 -1074.998)">
      <path id="Path_4012" data-name="Path 4012" d="M351.957,803.893v11.772l23.578,23.578v20.532h-5.922l.083-17.943-22.875-22.937V801.456Z" fill="#6c52b2"/>
    </g>
    <g id="Group_245" data-name="Group 245" transform="translate(2064.554 -1074.998)">
      <path id="Path_4013" data-name="Path 4013" d="M384.946,830.615v29.159h4.269V827.581Z" fill="#6c52b2"/>
    </g>
    <g id="Group_246" data-name="Group 246" transform="translate(2064.554 -1074.998)">
      <path id="Path_4014" data-name="Path 4014" d="M422.946,805.456V820.11l-22.625,23.159v15.677h4.292V844.664l23.011-22.917V804.009Z" fill="#6c52b2"/>
    </g>
    <g id="Group_247" data-name="Group 247" transform="translate(2064.554 -1074.998)">
      <circle id="Ellipse_44" data-name="Ellipse 44" cx="10.458" cy="10.458" r="10.458" transform="translate(579.406 773.014) rotate(-13.282)" fill="#6c52b2"/>
    </g>
    <g id="Group_248" data-name="Group 248" transform="translate(2064.554 -1074.998)">
      <circle id="Ellipse_45" data-name="Ellipse 45" cx="10.458" cy="10.458" r="10.458" transform="translate(701.117 772.141) rotate(-9.217)" fill="#6c52b2"/>
    </g>
    <g id="Group_249" data-name="Group 249" transform="translate(2064.554 -1074.998)">
      <path id="Path_4015" data-name="Path 4015" d="M749.983,707.429l-13.048,7.534-13.049-7.534V692.362l13.049-7.534,13.048,7.534Z" fill="#5d33d0"/>
    </g>
    <g id="Group_250" data-name="Group 250" transform="translate(2064.554 -1074.998)">
      <path id="Path_4016" data-name="Path 4016" d="M741.957,813.876l-13.049,7.534-13.048-7.534V798.809l13.048-7.534,13.049,7.534Z" fill="#5d33d0"/>
    </g>
    <g id="Group_251" data-name="Group 251" transform="translate(2064.554 -1074.998)">
      <path id="Path_4017" data-name="Path 4017" d="M784.207,762.985l-13.049,7.533-13.048-7.533V747.918l13.048-7.534,13.049,7.534Z" fill="#5d33d0"/>
    </g>
    <g id="Group_252" data-name="Group 252" transform="translate(2064.554 -1074.998)">
      <rect id="Rectangle_104" data-name="Rectangle 104" width="27.32" height="27.32" transform="translate(606.223 661.858)" fill="#6c52b2"/>
    </g>
    <g id="Group_253" data-name="Group 253" transform="translate(2064.554 -1074.998)">
      <circle id="Ellipse_46" data-name="Ellipse 46" cx="20.177" cy="20.177" r="20.177" transform="translate(466.906 559.998)" fill="#ab8cff"/>
    </g>
    <g id="Group_254" data-name="Group 254" transform="translate(2064.554 -1074.998)">
      <circle id="Ellipse_47" data-name="Ellipse 47" cx="6.801" cy="6.801" r="6.801" transform="translate(518.048 559.998)" fill="#ab8cff"/>
    </g>
    <g id="Group_256" data-name="Group 256" transform="translate(2064.554 -1074.998)">
      <circle id="Ellipse_49" data-name="Ellipse 49" cx="8.086" cy="8.086" r="8.086" transform="translate(249.167 624.08)" fill="#ab8cff"/>
    </g>
    <g id="Group_258" data-name="Group 258" transform="translate(2064.554 -1074.998)">
      <circle id="Ellipse_51" data-name="Ellipse 51" cx="6.804" cy="6.804" r="6.804" transform="translate(770.6 655.849)" fill="#ab8cff"/>
    </g>
    <g id="Group_285" data-name="Group 285" transform="translate(2064.554 -1074.998)">
      <g id="Group_260" data-name="Group 260">
        <path id="Path_4018" data-name="Path 4018" d="M326.514,685.713a21.847,21.847,0,0,1-9.721-2.28l1.779-3.582A17.827,17.827,0,0,0,344.3,664.979l3.993.248a21.82,21.82,0,0,1-21.783,20.486Z" fill="#15005d"/>
      </g>
      <g id="Group_261" data-name="Group 261">
        <path id="Path_4019" data-name="Path 4019" d="M352.956,691.3l-3.946-.658c1.456-8.74-6.633-11.307-6.978-11.413l1.164-3.826C347.281,676.648,354.578,681.57,352.956,691.3Z" fill="#15005d"/>
      </g>
      <g id="Group_262" data-name="Group 262">
        <path id="Path_4020" data-name="Path 4020" d="M345.158,649c-.683-8.993-9.037-10.84-9.393-10.914l.793-3.921A16.051,16.051,0,0,1,349.146,648.7Z" fill="#15005d"/>
      </g>
      <g id="Group_263" data-name="Group 263">
        <path id="Path_4021" data-name="Path 4021" d="M339.587,638.388a14.662,14.662,0,0,1-11.634-5.017L331,630.777c5.9,6.919,17.36,1.722,17.475,1.669l1.682,3.629A27.781,27.781,0,0,1,339.587,638.388Z" fill="#15005d"/>
      </g>
      <g id="Group_264" data-name="Group 264">
        <rect id="Rectangle_105" data-name="Rectangle 105" width="4" height="41.774" transform="translate(371.507 665.103)" fill="#15005d"/>
      </g>
      <g id="Group_265" data-name="Group 265">
        <path id="Path_4022" data-name="Path 4022" d="M309.18,679.373a29.536,29.536,0,0,1-11.734-23.639,29.834,29.834,0,0,1,19.23-27.8A25.54,25.54,0,0,1,313.3,615.21a25.816,25.816,0,0,1,25.787-25.787,24.865,24.865,0,0,1,5.75.689,15.71,15.71,0,0,1,14.082-11.236,15.657,15.657,0,0,1,16.581,14.68l0,.121v57.4h-4V593.739a11.661,11.661,0,0,0-23.183-.852L348,595.25l-2.27-.736a21.508,21.508,0,0,0-6.636-1.091,21.759,21.759,0,0,0-17.713,34.436l1.665,2.325-2.754.766a25.7,25.7,0,0,0-8.68,45.243Z" fill="#15005d"/>
      </g>
      <g id="Group_266" data-name="Group 266">
        <path id="Path_4023" data-name="Path 4023" d="M396.687,596.077a8.616,8.616,0,1,1,8.615-8.615A8.625,8.625,0,0,1,396.687,596.077Zm0-13.231a4.616,4.616,0,1,0,4.615,4.616A4.621,4.621,0,0,0,396.687,582.846Z" fill="#15005d"/>
      </g>
      <g id="Group_267" data-name="Group 267">
        <path id="Path_4024" data-name="Path 4024" d="M324.671,666.3a8.615,8.615,0,1,1,8.615-8.615A8.626,8.626,0,0,1,324.671,666.3Zm0-13.231a4.615,4.615,0,1,0,4.615,4.616A4.622,4.622,0,0,0,324.671,653.072Z" fill="#15005d"/>
      </g>
      <g id="Group_268" data-name="Group 268">
        <path id="Path_4025" data-name="Path 4025" d="M444.729,668.737a11.049,11.049,0,1,1,11.05-11.049A11.062,11.062,0,0,1,444.729,668.737Zm0-18.1a7.049,7.049,0,1,0,7.05,7.05A7.057,7.057,0,0,0,444.729,650.638Z" fill="#15005d"/>
      </g>
      <g id="Group_269" data-name="Group 269">
        <rect id="Rectangle_106" data-name="Rectangle 106" width="36.817" height="4" transform="translate(392.246 655.688)" fill="#15005d"/>
      </g>
      <g id="Group_270" data-name="Group 270">
        <rect id="Rectangle_107" data-name="Rectangle 107" width="57.736" height="4" transform="translate(334.509 655.688)" fill="#15005d"/>
      </g>
      <g id="Group_273" data-name="Group 273">
        <g id="Group_271" data-name="Group 271">
          <path id="Path_4026" data-name="Path 4026" d="M422.8,620.8a9.637,9.637,0,1,1,9.637-9.637A9.648,9.648,0,0,1,422.8,620.8Zm0-15.274a5.637,5.637,0,1,0,5.637,5.637A5.643,5.643,0,0,0,422.8,605.526Z" fill="#15005d"/>
        </g>
        <g id="Group_272" data-name="Group 272">
          <path id="Path_4027" data-name="Path 4027" d="M398.516,639.428H379.688v-4H396.86L416.6,615.692l2.828,2.828Z" fill="#15005d"/>
        </g>
      </g>
      <g id="Group_276" data-name="Group 276">
        <g id="Group_274" data-name="Group 274">
          <path id="Path_4028" data-name="Path 4028" d="M422.8,713.447a9.637,9.637,0,1,1,9.637-9.636A9.647,9.647,0,0,1,422.8,713.447Zm0-15.273a5.637,5.637,0,1,0,5.637,5.637A5.642,5.642,0,0,0,422.8,698.174Z" fill="#15005d"/>
        </g>
        <g id="Group_275" data-name="Group 275">
          <path id="Path_4029" data-name="Path 4029" d="M416.6,699.281,396.86,679.546H379.688v-4h18.828l20.907,20.907Z" fill="#15005d"/>
        </g>
      </g>
      <g id="Group_277" data-name="Group 277">
        <path id="Path_4030" data-name="Path 4030" d="M359.234,609.467l-3.982-.371c.828-8.866-9.75-14.666-9.857-14.724l1.9-3.521C347.823,591.137,360.306,597.994,359.234,609.467Z" fill="#15005d"/>
      </g>
      <g id="Group_278" data-name="Group 278">
        <path id="Path_4031" data-name="Path 4031" d="M354.519,623.983c-14.934,0-19.878-13.889-19.934-14.056l3.783-1.3c.23.656,5.81,16.012,24.434,9.892l1.25,3.8A30.476,30.476,0,0,1,354.519,623.983Z" fill="#15005d"/>
      </g>
      <g id="Group_279" data-name="Group 279">
        <path id="Path_4032" data-name="Path 4032" d="M351.912,711.974q-1.341,0-2.745-.1l.294-3.988c6.565.476,11.833-.944,15.652-4.242,5.774-4.99,6.4-12.729,6.4-12.807l3.99.273c-.025.382-.709,9.421-7.739,15.526C363.678,710.183,358.354,711.974,351.912,711.974Z" fill="#15005d"/>
      </g>
      <g id="Group_280" data-name="Group 280">
        <rect id="Rectangle_108" data-name="Rectangle 108" width="19.281" height="4.001" transform="translate(381.062 608.203) rotate(-57.419)" fill="#15005d"/>
      </g>
      <g id="Group_281" data-name="Group 281">
        <rect id="Rectangle_109" data-name="Rectangle 109" width="4" height="20.101" transform="translate(428.6 623.598) rotate(-23.225)" fill="#15005d"/>
      </g>
      <g id="Group_282" data-name="Group 282">
        <rect id="Rectangle_110" data-name="Rectangle 110" width="17.617" height="3.999" transform="translate(431.982 690.291) rotate(-70.071)" fill="#15005d"/>
      </g>
      <g id="Group_283" data-name="Group 283">
        <rect id="Rectangle_111" data-name="Rectangle 111" width="10.243" height="4" transform="translate(404.088 720.684) rotate(-45.712)" fill="#15005d"/>
      </g>
      <g id="Group_284" data-name="Group 284">
        <rect id="Rectangle_112" data-name="Rectangle 112" width="4" height="9.336" transform="translate(404.596 595.558) rotate(-47.764)" fill="#15005d"/>
      </g>
    </g>
    <g id="Group_306" data-name="Group 306" transform="translate(2064.554 -1074.998)">
      <g id="Group_286" data-name="Group 286">
        <rect id="Rectangle_113" data-name="Rectangle 113" width="39.629" height="4" transform="translate(573.638 732.648)" fill="#15005d"/>
      </g>
      <g id="Group_287" data-name="Group 287">
        <path id="Path_4033" data-name="Path 4033" d="M682.248,712.168h-4V615.042a12.367,12.367,0,0,0-12.354-12.353H560.64a12.366,12.366,0,0,0-12.352,12.353v14.787h-4V615.042a16.371,16.371,0,0,1,16.352-16.353H665.894a16.371,16.371,0,0,1,16.354,16.353Z" fill="#15005d"/>
      </g>
      <g id="Group_288" data-name="Group 288">
        <path id="Path_4034" data-name="Path 4034" d="M665.51,586.1h-6v-4h6Zm-12,0h-6v-4h6Zm-12,0h-6v-4h6Zm-12,0h-6v-4h6Zm-12,0h-6v-4h6Zm-12,0h-6v-4h6Zm-12,0h-6v-4h6Zm-12,0h-6v-4h6Zm-12,0h-6v-4h6Z" fill="#15005d"/>
      </g>
      <g id="Group_295" data-name="Group 295">
        <g id="Group_289" data-name="Group 289">
          <rect id="Rectangle_114" data-name="Rectangle 114" width="11.831" height="4" transform="translate(686.844 617.721)" fill="#15005d"/>
        </g>
        <g id="Group_290" data-name="Group 290">
          <rect id="Rectangle_115" data-name="Rectangle 115" width="11.831" height="4" transform="translate(686.844 636.9)" fill="#15005d"/>
        </g>
        <g id="Group_291" data-name="Group 291">
          <rect id="Rectangle_116" data-name="Rectangle 116" width="11.831" height="4" transform="translate(686.844 656.079)" fill="#15005d"/>
        </g>
        <g id="Group_292" data-name="Group 292">
          <rect id="Rectangle_117" data-name="Rectangle 117" width="11.831" height="4" transform="translate(686.844 675.259)" fill="#15005d"/>
        </g>
        <g id="Group_293" data-name="Group 293">
          <rect id="Rectangle_118" data-name="Rectangle 118" width="11.831" height="4" transform="translate(686.844 694.438)" fill="#15005d"/>
        </g>
        <g id="Group_294" data-name="Group 294">
          <rect id="Rectangle_119" data-name="Rectangle 119" width="11.831" height="4" transform="translate(686.844 713.617)" fill="#15005d"/>
        </g>
      </g>
      <g id="Group_297" data-name="Group 297">
        <g id="Group_296" data-name="Group 296">
          <rect id="Rectangle_120" data-name="Rectangle 120" width="21.074" height="4" transform="translate(659.173 665.669)" fill="#15005d"/>
        </g>
      </g>
      <g id="Group_300" data-name="Group 300">
        <g id="Group_298" data-name="Group 298">
          <rect id="Rectangle_121" data-name="Rectangle 121" width="4" height="21.074" transform="translate(611.267 600.688)" fill="#15005d"/>
        </g>
        <g id="Group_299" data-name="Group 299">
          <rect id="Rectangle_122" data-name="Rectangle 122" width="4" height="21.073" transform="translate(611.267 713.575)" fill="#15005d"/>
        </g>
      </g>
      <g id="Group_304" data-name="Group 304">
        <g id="Group_301" data-name="Group 301">
          <path id="Path_4035" data-name="Path 4035" d="M584.067,655.849h-4V634.47h21.38v4h-17.38Z" fill="#15005d"/>
        </g>
        <g id="Group_302" data-name="Group 302">
          <path id="Path_4036" data-name="Path 4036" d="M646.466,655.849h-4V638.47H625.088v-4h21.379Z" fill="#15005d"/>
        </g>
        <g id="Group_303" data-name="Group 303">
          <path id="Path_4037" data-name="Path 4037" d="M601.447,700.868h-21.38V679.489h4v17.379h17.38Z" fill="#15005d"/>
        </g>
      </g>
      <g id="Group_305" data-name="Group 305">
        <path id="Path_4038" data-name="Path 4038" d="M628.6,683.007H597.929V652.331H628.6Zm-26.676-4H624.6V656.331H601.929Z" fill="#15005d"/>
      </g>
    </g>
    <g id="Group_334" data-name="Group 334" transform="translate(2064.554 -1074.998)">
      <g id="Group_307" data-name="Group 307">
        <path id="Path_4039" data-name="Path 4039" d="M697.169,838.508H599.3V765.517a48.52,48.52,0,0,1,48.465-48.465h.939a48.52,48.52,0,0,1,48.465,48.465Zm-93.869-4h89.869V765.517A44.516,44.516,0,0,0,648.7,721.052h-.939A44.516,44.516,0,0,0,603.3,765.517Z" fill="#15005d"/>
      </g>
      <g id="Group_310" data-name="Group 310">
        <g id="Group_308" data-name="Group 308">
          <path id="Path_4040" data-name="Path 4040" d="M621.832,861.826a12.984,12.984,0,0,1-11.109-19.733l3.418,2.076a9,9,0,1,0,15.38,0l3.418-2.076a12.983,12.983,0,0,1-11.107,19.733Z" fill="#15005d"/>
        </g>
        <g id="Group_309" data-name="Group 309">
          <rect id="Rectangle_123" data-name="Rectangle 123" width="4" height="13.628" transform="translate(619.832 836.508)" fill="#15005d"/>
        </g>
      </g>
      <g id="Group_313" data-name="Group 313">
        <g id="Group_311" data-name="Group 311">
          <path id="Path_4041" data-name="Path 4041" d="M673.954,861.826a12.984,12.984,0,0,1-11.109-19.733l3.418,2.076a9,9,0,1,0,15.38,0l3.418-2.076a12.983,12.983,0,0,1-11.107,19.733Z" fill="#15005d"/>
        </g>
        <g id="Group_312" data-name="Group 312">
          <rect id="Rectangle_124" data-name="Rectangle 124" width="4" height="13.628" transform="translate(671.954 836.508)" fill="#15005d"/>
        </g>
      </g>
      <g id="Group_314" data-name="Group 314">
        <path id="Path_4042" data-name="Path 4042" d="M668.379,781.838H628.09a14.088,14.088,0,0,1-14.072-14.071v-.245a14.088,14.088,0,0,1,14.072-14.071h40.289a14.088,14.088,0,0,1,14.072,14.071v.245A14.088,14.088,0,0,1,668.379,781.838ZM628.09,757.451a10.083,10.083,0,0,0-10.072,10.071v.245a10.083,10.083,0,0,0,10.072,10.071h40.289a10.083,10.083,0,0,0,10.072-10.071v-.245a10.083,10.083,0,0,0-10.072-10.071Z" fill="#15005d"/>
      </g>
      <g id="Group_318" data-name="Group 318">
        <g id="Group_315" data-name="Group 315">
          <rect id="Rectangle_125" data-name="Rectangle 125" width="16.349" height="4" transform="translate(640.06 793.765)" fill="#15005d"/>
        </g>
        <g id="Group_316" data-name="Group 316">
          <rect id="Rectangle_126" data-name="Rectangle 126" width="16.349" height="4" transform="translate(640.06 812.383)" fill="#15005d"/>
        </g>
        <g id="Group_317" data-name="Group 317">
          <rect id="Rectangle_127" data-name="Rectangle 127" width="31.874" height="4" transform="translate(632.297 803.073)" fill="#15005d"/>
        </g>
      </g>
      <g id="Group_319" data-name="Group 319">
        <rect id="Rectangle_128" data-name="Rectangle 128" width="4" height="5.766" transform="translate(646.235 713.286)" fill="#15005d"/>
      </g>
      <g id="Group_320" data-name="Group 320">
        <path id="Path_4043" data-name="Path 4043" d="M648.235,714.442a6.922,6.922,0,1,1,6.922-6.922A6.93,6.93,0,0,1,648.235,714.442Zm0-9.844a2.922,2.922,0,1,0,2.922,2.922A2.925,2.925,0,0,0,648.235,704.6Z" fill="#15005d"/>
      </g>
      <g id="Group_323" data-name="Group 323">
        <g id="Group_321" data-name="Group 321">
          <path id="Path_4044" data-name="Path 4044" d="M637,700.277l-2.828-2.828a21.146,21.146,0,0,1,29.9,0l-2.828,2.828a17.148,17.148,0,0,0-24.247,0Z" fill="#15005d"/>
        </g>
        <g id="Group_322" data-name="Group 322">
          <path id="Path_4045" data-name="Path 4045" d="M624.959,691.356l-2.829-2.828a36.923,36.923,0,0,1,52.21,0l-2.829,2.829a32.921,32.921,0,0,0-46.552,0Z" fill="#15005d"/>
        </g>
      </g>
      <g id="Group_328" data-name="Group 328">
        <g id="Group_324" data-name="Group 324">
          <path id="Path_4046" data-name="Path 4046" d="M588.983,793.658a13,13,0,1,1,6.733-24.109l-2.076,3.42a9,9,0,1,0,0,15.377l2.076,3.42A12.98,12.98,0,0,1,588.983,793.658Z" fill="#15005d"/>
        </g>
        <g id="Group_325" data-name="Group 325">
          <rect id="Rectangle_129" data-name="Rectangle 129" width="38.179" height="4" transform="translate(570.565 826.315) rotate(-71.318)" fill="#15005d"/>
        </g>
        <g id="Group_326" data-name="Group 326">
          <path id="Path_4047" data-name="Path 4047" d="M589.178,786.226a5.569,5.569,0,1,1,5.569-5.569A5.574,5.574,0,0,1,589.178,786.226Zm0-7.137a1.569,1.569,0,1,0,1.569,1.568A1.569,1.569,0,0,0,589.178,779.089Z" fill="#15005d"/>
        </g>
        <g id="Group_327" data-name="Group 327">
          <path id="Path_4048" data-name="Path 4048" d="M576.16,841.067l-3.8-1.243,2.624-8.026a1.832,1.832,0,0,0-1.14-2.345l-4.36-1.477a1.83,1.83,0,0,0-2.324,1.147l-2.618,8.007-3.8-1.244,2.625-8.027a5.832,5.832,0,0,1,7.4-3.672l4.359,1.477a5.833,5.833,0,0,1,3.653,7.4Z" fill="#15005d"/>
        </g>
      </g>
      <g id="Group_333" data-name="Group 333">
        <g id="Group_329" data-name="Group 329">
          <path id="Path_4049" data-name="Path 4049" d="M707.362,793.658a12.986,12.986,0,0,1-6.734-1.892l2.077-3.42a9,9,0,1,0,0-15.377l-2.077-3.42a13,13,0,1,1,6.734,24.109Z" fill="#15005d"/>
        </g>
        <g id="Group_330" data-name="Group 330">
          <rect id="Rectangle_130" data-name="Rectangle 130" width="4" height="38.178" transform="matrix(0.947, -0.32, 0.32, 0.947, 709.762, 791.429)" fill="#15005d"/>
        </g>
        <g id="Group_331" data-name="Group 331">
          <path id="Path_4050" data-name="Path 4050" d="M707.167,786.226a5.569,5.569,0,1,1,5.568-5.569A5.575,5.575,0,0,1,707.167,786.226Zm0-7.137a1.569,1.569,0,1,0,1.568,1.568A1.569,1.569,0,0,0,707.167,779.089Z" fill="#15005d"/>
        </g>
        <g id="Group_332" data-name="Group 332">
          <path id="Path_4051" data-name="Path 4051" d="M720.185,841.067l-2.624-8.027a5.833,5.833,0,0,1,3.66-7.376l4.36-1.477a5.843,5.843,0,0,1,7.4,3.652l2.631,8.048-3.8,1.242-2.624-8.026a1.827,1.827,0,0,0-2.318-1.127l-4.36,1.477a1.831,1.831,0,0,0-1.147,2.323l2.631,8.048Z" fill="#15005d"/>
        </g>
      </g>
    </g>
    <g id="Group_349" data-name="Group 349" transform="translate(2064.554 -1074.998)">
      <g id="Group_335" data-name="Group 335">
        <path id="Path_4052" data-name="Path 4052" d="M256.566,847.331h-4V826.715H233.019a15.744,15.744,0,0,1-15.725-15.727V788.33h-9.777a6.009,6.009,0,0,1-5.288-8.863L203,777.65l3.68,1.569-.914,2.111a2.01,2.01,0,0,0,1.748,3h13.777v26.658a11.739,11.739,0,0,0,11.725,11.727h23.547Z" fill="#15005d"/>
      </g>
      <g id="Group_336" data-name="Group 336">
        <path id="Path_4053" data-name="Path 4053" d="M338.765,731.253a52.9,52.9,0,0,0-52.18-45.266H274.038a52.44,52.44,0,0,0-44.762,24.871l-3.4-2.116a56.42,56.42,0,0,1,48.157-26.755h12.547a56.924,56.924,0,0,1,56.141,48.707Z" fill="#15005d"/>
      </g>
      <g id="Group_337" data-name="Group 337">
        <path id="Path_4054" data-name="Path 4054" d="M313.6,859.826h-4V818.547l.333-.5c1.381-2.084,2.956-4.331,4.624-6.709,9.924-14.154,23.517-33.538,24.977-58.99l3.994.228c-1.525,26.589-15.5,46.512-25.7,61.058-1.518,2.165-2.959,4.221-4.232,6.122Z" fill="#15005d"/>
      </g>
      <g id="Group_338" data-name="Group 338">
        <rect id="Rectangle_131" data-name="Rectangle 131" width="34.171" height="4" transform="translate(268.861 730.019)" fill="#15005d"/>
      </g>
      <g id="Group_339" data-name="Group 339">
        <path id="Path_4055" data-name="Path 4055" d="M351.125,755.084H330.438v-4h16.686V734.019H303.032v-4h48.093Z" fill="#15005d"/>
      </g>
      <g id="Group_340" data-name="Group 340">
        <path id="Path_4056" data-name="Path 4056" d="M304.536,787.915a24.089,24.089,0,1,1,24.089-24.089A24.117,24.117,0,0,1,304.536,787.915Zm0-44.178a20.089,20.089,0,1,0,20.089,20.089A20.112,20.112,0,0,0,304.536,743.737Z" fill="#15005d"/>
      </g>
      <g id="Group_341" data-name="Group 341">
        <path id="Path_4057" data-name="Path 4057" d="M304.536,777.283a13.457,13.457,0,1,1,7.271-24.781l-2.164,3.363a9.453,9.453,0,1,0,2.733,2.67l3.312-2.242a13.458,13.458,0,0,1-11.152,20.99Z" fill="#15005d"/>
      </g>
      <g id="Group_342" data-name="Group 342">
        <path id="Path_4058" data-name="Path 4058" d="M250.732,762.711H241.02v-4h9.712a2.254,2.254,0,0,0,2.252-2.252V730.3a2.254,2.254,0,0,0-2.252-2.251H241.02v-4h9.712a6.258,6.258,0,0,1,6.252,6.251v26.155A6.26,6.26,0,0,1,250.732,762.711Z" fill="#15005d"/>
      </g>
      <g id="Group_343" data-name="Group 343">
        <path id="Path_4059" data-name="Path 4059" d="M222.983,774.069H197.63V712.693h25.353L243.932,724.2v38.367Zm-21.353-4h20.328l17.974-9.872V726.566l-17.974-9.873H201.63Z" fill="#15005d"/>
      </g>
      <g id="Group_344" data-name="Group 344">
        <rect id="Rectangle_132" data-name="Rectangle 132" width="4" height="40.56" transform="translate(188.633 723.102)" fill="#15005d"/>
      </g>
      <g id="Group_345" data-name="Group 345">
        <rect id="Rectangle_133" data-name="Rectangle 133" width="4.001" height="31.395" transform="translate(254.02 754.858) rotate(-62.435)" fill="#15005d"/>
      </g>
      <g id="Group_346" data-name="Group 346">
        <rect id="Rectangle_134" data-name="Rectangle 134" width="4" height="36.222" transform="translate(254.039 735.462) rotate(-63.025)" fill="#15005d"/>
      </g>
      <g id="Group_347" data-name="Group 347">
        <rect id="Rectangle_135" data-name="Rectangle 135" width="4" height="25.989" transform="translate(220.47 714.693)" fill="#15005d"/>
      </g>
      <g id="Group_348" data-name="Group 348">
        <rect id="Rectangle_136" data-name="Rectangle 136" width="4" height="25.989" transform="translate(220.47 746.335)" fill="#15005d"/>
      </g>
    </g>
    <g id="Group_374" data-name="Group 374" transform="translate(2064.554 -1074.998)">
      <g id="Group_350" data-name="Group 350">
        <path id="Path_4060" data-name="Path 4060" d="M554.768,820.49H523.2v-4h28.117l9.268-63.127-.293-10.164V702.344H537.831v-4h26.456v44.8l.3,10.456Z" fill="#15005d"/>
      </g>
      <g id="Group_351" data-name="Group 351">
        <path id="Path_4061" data-name="Path 4061" d="M490.919,743.142h-4v-40.8H466.462v40.8h-4v-44.8h28.456Z" fill="#15005d"/>
      </g>
      <g id="Group_352" data-name="Group 352">
        <path id="Path_4062" data-name="Path 4062" d="M515.375,743.142h-4v-40.8h-25.4v-4h29.4Z" fill="#15005d"/>
      </g>
      <g id="Group_353" data-name="Group 353">
        <path id="Path_4063" data-name="Path 4063" d="M539.831,743.142h-4v-40.8H513.375v-4h26.456Z" fill="#15005d"/>
      </g>
      <g id="Group_354" data-name="Group 354">
        <path id="Path_4064" data-name="Path 4064" d="M490.919,692.426h-4v-56.24a10.117,10.117,0,0,0-10.106-10.106h-.245a10.117,10.117,0,0,0-10.106,10.106v56.24h-4v-56.24a14.123,14.123,0,0,1,14.106-14.106h.245a14.123,14.123,0,0,1,14.106,14.106Z" fill="#15005d"/>
      </g>
      <g id="Group_355" data-name="Group 355">
        <path id="Path_4065" data-name="Path 4065" d="M515.375,692.426h-4V622.5A10.118,10.118,0,0,0,501.269,612.4h-.245a10.117,10.117,0,0,0-10.1,10.106v69.922h-4V622.5a14.122,14.122,0,0,1,14.1-14.106h.245A14.123,14.123,0,0,1,515.375,622.5Z" fill="#15005d"/>
      </g>
      <g id="Group_356" data-name="Group 356">
        <path id="Path_4066" data-name="Path 4066" d="M539.831,692.426h-4V636a10.118,10.118,0,0,0-10.106-10.106h-.245A10.117,10.117,0,0,0,515.375,636v56.43h-4V636a14.122,14.122,0,0,1,14.1-14.106h.245A14.123,14.123,0,0,1,539.831,636Z" fill="#15005d"/>
      </g>
      <g id="Group_357" data-name="Group 357">
        <path id="Path_4067" data-name="Path 4067" d="M564.287,692.426h-4V652.358a10.118,10.118,0,0,0-10.107-10.106h-.244a10.117,10.117,0,0,0-10.1,10.106v40.068h-4V652.358a14.122,14.122,0,0,1,14.1-14.106h.244a14.122,14.122,0,0,1,14.107,14.106Z" fill="#15005d"/>
      </g>
      <g id="Group_358" data-name="Group 358">
        <path id="Path_4068" data-name="Path 4068" d="M377.908,742.156l-6.308-4.347a14.122,14.122,0,0,1-3.694-19.6l.14-.2a14.123,14.123,0,0,1,19.6-3.7l6.315,4.353-2.269,3.293-6.308-4.348a10.12,10.12,0,0,0-14.036,2.659l-.139.2a10.117,10.117,0,0,0,2.653,14.041l6.315,4.353Z" fill="#15005d"/>
      </g>
      <g id="Group_359" data-name="Group 359">
        <rect id="Rectangle_137" data-name="Rectangle 137" width="4" height="25.848" transform="translate(474.69 686.32)" fill="#15005d"/>
      </g>
      <g id="Group_360" data-name="Group 360">
        <rect id="Rectangle_138" data-name="Rectangle 138" width="3.999" height="25.847" transform="translate(412.957 754.077) rotate(-55.075)" fill="#15005d"/>
      </g>
      <g id="Group_361" data-name="Group 361">
        <rect id="Rectangle_139" data-name="Rectangle 139" width="4" height="12.567" transform="translate(383.25 730.99) rotate(-55.073)" fill="#15005d"/>
      </g>
      <g id="Group_362" data-name="Group 362">
        <rect id="Rectangle_140" data-name="Rectangle 140" width="4" height="25.848" transform="translate(499.146 686.32)" fill="#15005d"/>
      </g>
      <g id="Group_363" data-name="Group 363">
        <rect id="Rectangle_141" data-name="Rectangle 141" width="4" height="25.848" transform="translate(523.602 686.32)" fill="#15005d"/>
      </g>
      <g id="Group_364" data-name="Group 364">
        <rect id="Rectangle_142" data-name="Rectangle 142" width="4" height="25.848" transform="translate(548.058 686.32)" fill="#15005d"/>
      </g>
      <g id="Group_365" data-name="Group 365">
        <path id="Path_4069" data-name="Path 4069" d="M405.029,757.371a14.251,14.251,0,1,1,1.4-.067C405.958,757.349,405.492,757.371,405.029,757.371Zm.035-24.458c-.329,0-.659.016-.993.048a10.223,10.223,0,1,0,.993-.048Z" fill="#15005d"/>
      </g>
      <g id="Group_366" data-name="Group 366">
        <path id="Path_4070" data-name="Path 4070" d="M533.65,818.49h-4V774.562l7.121-12.915,3.5,1.932-6.623,12.013Z" fill="#15005d"/>
      </g>
      <g id="Group_367" data-name="Group 367">
        <path id="Path_4071" data-name="Path 4071" d="M497.1,818.49h-4v-42.9l-6.623-12.013,3.5-1.932,7.121,12.915Z" fill="#15005d"/>
      </g>
      <g id="Group_368" data-name="Group 368">
        <rect id="Rectangle_143" data-name="Rectangle 143" width="4" height="25.103" transform="translate(511.375 806.343)" fill="#15005d"/>
      </g>
      <g id="Group_369" data-name="Group 369">
        <rect id="Rectangle_144" data-name="Rectangle 144" width="4" height="30.758" transform="translate(511.375 775.585)" fill="#15005d"/>
      </g>
      <g id="Group_370" data-name="Group 370">
        <path id="Path_4072" data-name="Path 4072" d="M502.7,820.49H470.88l-56.258-49.9,16.6-23.629,3.535,1.771c1.755.879,7.968,3.506,14.658.643l4.825-3.212,2.216,3.33-5.276,3.476a21.641,21.641,0,0,1-18.214-.66l-.453-.227-12.569,17.885L472.4,816.49h30.3Z" fill="#15005d"/>
      </g>
      <g id="Group_371" data-name="Group 371">
        <path id="Path_4073" data-name="Path 4073" d="M461.127,809.547l-2.583-3.053c8.165-6.911,10.421-16.445,6.707-28.336l3.818-1.193C473.249,790.346,470.5,801.612,461.127,809.547Z" fill="#15005d"/>
      </g>
      <g id="Group_372" data-name="Group 372">
        <rect id="Rectangle_145" data-name="Rectangle 145" width="4" height="40.455" transform="translate(551.041 818.49)" fill="#15005d"/>
      </g>
      <g id="Group_373" data-name="Group 373">
        <rect id="Rectangle_146" data-name="Rectangle 146" width="4" height="41.336" transform="translate(469.081 818.49)" fill="#15005d"/>
      </g>
    </g>
    <g id="Group_386" data-name="Group 386" transform="translate(2064.554 -1074.998)">
      <g id="Group_375" data-name="Group 375">
        <path id="Path_4074" data-name="Path 4074" d="M385.944,820.11a3.026,3.026,0,1,1-3.026-3.026A3.026,3.026,0,0,1,385.944,820.11Z" fill="#15005d"/>
      </g>
      <g id="Group_376" data-name="Group 376">
        <path id="Path_4075" data-name="Path 4075" d="M382.919,830.852A10.741,10.741,0,1,1,393.66,820.11,10.755,10.755,0,0,1,382.919,830.852Zm0-17.483a6.741,6.741,0,1,0,6.741,6.741A6.75,6.75,0,0,0,382.919,813.369Z" fill="#15005d"/>
      </g>
      <g id="Group_377" data-name="Group 377">
        <path id="Path_4076" data-name="Path 4076" d="M421.042,806.009a10.741,10.741,0,1,1,10.741-10.741A10.754,10.754,0,0,1,421.042,806.009Zm0-17.483a6.741,6.741,0,1,0,6.741,6.742A6.75,6.75,0,0,0,421.042,788.526Z" fill="#15005d"/>
      </g>
      <g id="Group_378" data-name="Group 378">
        <path id="Path_4077" data-name="Path 4077" d="M400.286,859.826h-4V841.614l22.756-22.666v-14.94h4v16.6l-22.756,22.666Z" fill="#15005d"/>
      </g>
      <g id="Group_379" data-name="Group 379">
        <path id="Path_4078" data-name="Path 4078" d="M344.858,806.009A10.741,10.741,0,1,1,355.6,795.268,10.753,10.753,0,0,1,344.858,806.009Zm0-17.483a6.741,6.741,0,1,0,6.741,6.742A6.749,6.749,0,0,0,344.858,788.526Z" fill="#15005d"/>
      </g>
      <g id="Group_380" data-name="Group 380">
        <path id="Path_4079" data-name="Path 4079" d="M369.614,859.826h-4v-16.55L342.858,820.61v-16.6h4v14.94l22.756,22.666Z" fill="#15005d"/>
      </g>
      <g id="Group_381" data-name="Group 381">
        <rect id="Rectangle_147" data-name="Rectangle 147" width="4" height="30.094" transform="translate(380.919 828.852)" fill="#15005d"/>
      </g>
      <g id="Group_382" data-name="Group 382">
        <rect id="Rectangle_148" data-name="Rectangle 148" width="4" height="16.704" transform="matrix(1, -0.002, 0.002, 1, 380.965, 787.193)" fill="#15005d"/>
      </g>
      <g id="Group_383" data-name="Group 383">
        <rect id="Rectangle_149" data-name="Rectangle 149" width="4" height="27.393" transform="matrix(1, -0.002, 0.002, 1, 380.919, 759.799)" fill="#15005d"/>
      </g>
      <g id="Group_384" data-name="Group 384">
        <rect id="Rectangle_150" data-name="Rectangle 150" width="4" height="22.068" transform="translate(365.379 775.541)" fill="#15005d"/>
      </g>
      <g id="Group_385" data-name="Group 385">
        <rect id="Rectangle_151" data-name="Rectangle 151" width="4" height="22.068" transform="translate(396.565 775.541)" fill="#15005d"/>
      </g>
    </g>
    <g id="Group_395" data-name="Group 395" transform="translate(2064.554 -1074.998)">
      <g id="Group_388" data-name="Group 388">
        <g id="Group_387" data-name="Group 387">
          <rect id="Rectangle_152" data-name="Rectangle 152" width="4" height="8.217" transform="translate(451.779 597.996)" fill="#15005d"/>
        </g>
      </g>
      <g id="Group_390" data-name="Group 390">
        <g id="Group_389" data-name="Group 389">
          <rect id="Rectangle_153" data-name="Rectangle 153" width="4" height="8.217" transform="translate(451.779 578.824)" fill="#15005d"/>
        </g>
      </g>
      <g id="Group_392" data-name="Group 392">
        <g id="Group_391" data-name="Group 391">
          <rect id="Rectangle_154" data-name="Rectangle 154" width="8.217" height="4" transform="translate(440.085 590.519)" fill="#15005d"/>
        </g>
      </g>
      <g id="Group_394" data-name="Group 394">
        <g id="Group_393" data-name="Group 393">
          <rect id="Rectangle_155" data-name="Rectangle 155" width="8.216" height="4" transform="translate(459.256 590.519)" fill="#15005d"/>
        </g>
      </g>
    </g>
    <g id="Group_404" data-name="Group 404" transform="translate(2064.554 -1074.998)">
      <g id="Group_397" data-name="Group 397">
        <g id="Group_396" data-name="Group 396">
          <rect id="Rectangle_156" data-name="Rectangle 156" width="4" height="8.216" transform="translate(214.903 682.736)" fill="#15005d"/>
        </g>
      </g>
      <g id="Group_399" data-name="Group 399">
        <g id="Group_398" data-name="Group 398">
          <rect id="Rectangle_157" data-name="Rectangle 157" width="4" height="8.217" transform="translate(214.903 663.565)" fill="#15005d"/>
        </g>
      </g>
      <g id="Group_401" data-name="Group 401">
        <g id="Group_400" data-name="Group 400">
          <rect id="Rectangle_158" data-name="Rectangle 158" width="8.216" height="4" transform="translate(203.21 675.259)" fill="#15005d"/>
        </g>
      </g>
      <g id="Group_403" data-name="Group 403">
        <g id="Group_402" data-name="Group 402">
          <rect id="Rectangle_159" data-name="Rectangle 159" width="8.217" height="4" transform="translate(222.38 675.259)" fill="#15005d"/>
        </g>
      </g>
    </g>
    <g id="Group_413" data-name="Group 413" transform="translate(2064.554 -1074.998)">
      <g id="Group_406" data-name="Group 406">
        <g id="Group_405" data-name="Group 405">
          <rect id="Rectangle_160" data-name="Rectangle 160" width="4" height="8.217" transform="translate(786.076 715.451)" fill="#15005d"/>
        </g>
      </g>
      <g id="Group_408" data-name="Group 408">
        <g id="Group_407" data-name="Group 407">
          <rect id="Rectangle_161" data-name="Rectangle 161" width="4" height="8.216" transform="translate(786.076 696.28)" fill="#15005d"/>
        </g>
      </g>
      <g id="Group_410" data-name="Group 410">
        <g id="Group_409" data-name="Group 409">
          <rect id="Rectangle_162" data-name="Rectangle 162" width="8.216" height="4" transform="translate(774.382 707.974)" fill="#15005d"/>
        </g>
      </g>
      <g id="Group_412" data-name="Group 412">
        <g id="Group_411" data-name="Group 411">
          <rect id="Rectangle_163" data-name="Rectangle 163" width="8.217" height="4" transform="translate(793.553 707.974)" fill="#15005d"/>
        </g>
      </g>
    </g>
    <g id="Group_431" data-name="Group 431" transform="translate(2064.554 -1074.998)">
      <g id="Group_421" data-name="Group 421">
        <path id="Path_4081" data-name="Path 4081" d="M726.825,774.911l-2-3.465,7.816-4.512V736.361l-26.477-15.285-13.575,7.838-2-3.465,15.575-8.992,30.477,17.6v35.19Z" fill="#15005d"/>
      </g>
      <g id="Group_422" data-name="Group 422">
        <path id="Path_4082" data-name="Path 4082" d="M763.952,775.488,743.3,763.568V739.729l20.647-11.921L784.6,739.729v23.839ZM747.3,761.26l16.647,9.609L780.6,761.26V742.037l-16.646-9.61-16.647,9.61Z" fill="#15005d"/>
      </g>
      <g id="Group_423" data-name="Group 423">
        <rect id="Rectangle_167" data-name="Rectangle 167" width="4" height="32.882" transform="translate(704.165 685.896)" fill="#15005d"/>
      </g>
      <g id="Group_424" data-name="Group 424">
        <path id="Path_4083" data-name="Path 4083" d="M746.308,829.383l-2.006-3.461,16.815-9.742v-30.53L741.419,774l2.037-3.443,21.662,12.816v35.116Z" fill="#15005d"/>
      </g>
      <g id="Group_425" data-name="Group 425">
        <path id="Path_4084" data-name="Path 4084" d="M765.118,716.59h-4V687.051l-26.479-15.287-28.278,16.247-1.992-3.469,30.274-17.393,30.475,17.594Z" fill="#15005d"/>
      </g>
      <g id="Group_426" data-name="Group 426">
        <rect id="Rectangle_168" data-name="Rectangle 168" width="26.028" height="3.999" transform="translate(733.613 733.505) rotate(-30.949)" fill="#15005d"/>
      </g>
      <g id="Group_427" data-name="Group 427">
        <rect id="Rectangle_169" data-name="Rectangle 169" width="4" height="25.828" transform="translate(647.211 784.509)" fill="#15005d"/>
      </g>
      <g id="Group_428" data-name="Group 428">
        <rect id="Rectangle_170" data-name="Rectangle 170" width="4" height="9.693" transform="translate(704.165 727.811)" fill="#15005d"/>
      </g>
      <g id="Group_429" data-name="Group 429">
        <rect id="Rectangle_171" data-name="Rectangle 171" width="4" height="22.193" transform="translate(664.847 740.991)" fill="#15005d"/>
      </g>
      <g id="Group_430" data-name="Group 430">
        <path id="Path_4085" data-name="Path 4085" d="M715.654,759.138h-4V746.159H698.675v-4h16.978Z" fill="#15005d"/>
      </g>
    </g>
  </g>
</svg>
