<svg xmlns="http://www.w3.org/2000/svg" width="755.969" height="384.198" viewBox="0 0 755.969 384.198">
  <g id="Group_987" data-name="Group 987" transform="translate(-887 -731.4)">
    <path id="Path_4405" data-name="Path 4405" d="M2411.556,1300.64s56.344-56.949,73.014-44.615S2411.556,1300.64,2411.556,1300.64Z" transform="translate(-923.974 -316.895)" fill="#92b5fa"/>
    <path id="Path_4406" data-name="Path 4406" d="M2401.734,1347.6s106.481-51.609,132.8-26.833-28.943,23.3-49.458,21.063S2401.734,1347.6,2401.734,1347.6Z" transform="translate(-918.021 -353.115)" fill="#92b5fa"/>
    <path id="Path_4407" data-name="Path 4407" d="M2389.31,1299.223s.425-2.733,1-6.731c1.114-7.8,2.785-20.419,2.946-26.969.243-9.908,7.986-17.173,17.025-7.369s-17.692,38.252-17.692,38.252Z" transform="translate(-910.492 -316.428)" fill="#92b5fa"/>
    <path id="Path_4408" data-name="Path 4408" d="M1638.765,1193.938s28.68-48.852,42.255-43.306S1638.765,1193.938,1638.765,1193.938Z" transform="translate(-455.616 -253.815)" fill="#92b5fa"/>
    <path id="Path_4409" data-name="Path 4409" d="M1636.789,1214.875s63.97-53.935,86.325-41.547-15.77,21.015-30.219,23.059S1636.789,1214.875,1636.789,1214.875Z" transform="translate(-454.418 -266.715)" fill="#92b5fa"/>
    <path id="Path_4410" data-name="Path 4410" d="M1617.706,1211.653s-.186-1.947-.492-4.786c-.6-5.54-1.652-14.478-2.684-19-1.561-6.832,2.477-13.161,10.382-8.019s-5.453,29.3-5.453,29.3Z" transform="translate(-440.727 -270.652)" fill="#92b5fa"/>
    <path id="Path_4411" data-name="Path 4411" d="M1277.523,1431.181c1.41-21.077,36.4-21.587,36.4-21.587s29.916,30.4,36.747,29.9-20.5-30.983-20.5-30.983c12.661-3.836,48.735,5.4,48.735,5.4s6.094,41.234,12.591,39.066-7.259-36.235-7.259-36.235c13.246,1.245,27.828,13.487,27.828,13.487,19.333,20.82-8.4,44.571-8.4,44.571s2.42,14.244,14.421,28.735h0a49.193,49.193,0,0,1,5.6,7.3l-3.406.682q-.692-1.287-1.454-2.459a.016.016,0,0,0-.01-.014l-.022-.034c-.339-.48-.824-1.162-1.425-1.991l0,0s0,0,0,0c-1.449-1.829-2.454-3.193-3.116-4.19a.032.032,0,0,1-.005-.009c-4.4-5.771-10.561-13.2-13.908-14.351a6.751,6.751,0,0,0,.416-1.708l-.416,1.708c-3.328,13.663-32.065,21.585-48.976,21.507s-10.748-6.078-3.491-15.266,25.976-10.9,30.806-14.9-3.667-5.33-14.329-2.328-13.907,14.916-31.066,20.086-37.078-25.063-37.078-25.063c12.829,1.329,33.152-9.673,33.151-14.005s-31.988,2.509-37.237,2.261S1276.113,1452.258,1277.523,1431.181Z" transform="translate(-236.604 -409.803)" fill="#bed2fa"/>
    <path id="Path_4412" data-name="Path 4412" d="M1260.258,841.5c12.519-17.358,42.862.973,42.862.973s9.4,42.173,15.544,45.407-1-37.627-1-37.627c12.939,3.5,38.988,30.786,38.988,30.786s-16.883,38.707-10.136,40.33,13.2-35.036,13.2-35.036c10.715,8.177,16.681,26.52,16.681,26.52,5.447,28.266-31.13,33.8-31.13,33.8s-5.562,13.541-3.022,32.432h0a49.808,49.808,0,0,1,.9,9.279l-3.294-1.241c.064-.984.089-1.95.069-2.893a.02.02,0,0,0,0-.017c0-.014,0-.028,0-.041-.033-.594-.085-1.44-.157-2.475v0s0,0,0-.005c-.264-2.349-.4-4.06-.43-5.273a.054.054,0,0,1,0-.011c-.685-7.32-1.993-17.013-4.254-19.795a6.815,6.815,0,0,0,1.274-1.245l-1.274,1.245c-10.19,9.957-39.139,1.349-53.63-7.79s-5.977-10.99,5.189-14.993,28.171,4.568,34.469,3.722-.292-6.548-11.066-9.688-19.955,5.359-37.475.6-18.421-41.432-18.421-41.432c10.313,8.025,33.682,9.471,36,5.748s-28.838-15-33.215-18.033S1247.74,858.857,1260.258,841.5Z" transform="translate(-221.362 -62.2)" fill="#92b5fa"/>
    <path id="Path_4413" data-name="Path 4413" d="M1862.119,895.912c11.655-16.16,39.9.906,39.9.906s8.755,39.263,14.471,42.273-.93-35.03-.93-35.03c12.047,3.254,36.3,28.661,36.3,28.661s-15.718,36.036-9.437,37.546,12.29-32.619,12.29-32.619c9.976,7.612,15.53,24.69,15.53,24.69,5.07,26.315-28.982,31.467-28.982,31.467s-5.178,12.606-2.814,30.194h0a46.417,46.417,0,0,1,.837,8.638l-3.066-1.155c.059-.916.082-1.816.064-2.693a.018.018,0,0,0,0-.016c0-.013,0-.025,0-.039-.032-.552-.079-1.34-.146-2.3v0s0,0,0,0c-.246-2.187-.368-3.78-.4-4.909a.043.043,0,0,1,0-.01c-.638-6.814-1.856-15.839-3.96-18.428a6.357,6.357,0,0,0,1.186-1.159l-1.186,1.159c-9.487,9.27-36.437,1.256-49.929-7.253s-5.564-10.231,4.831-13.958,26.227,4.253,32.09,3.465-.272-6.1-10.3-9.02-18.577,4.989-34.889.555-17.15-38.572-17.15-38.572c9.6,7.471,31.358,8.818,33.52,5.351s-26.847-13.969-30.923-16.789S1850.465,912.072,1862.119,895.912Z" transform="translate(-586.462 -95.49)" fill="#bed2fa"/>
    <path id="Path_4414" data-name="Path 4414" d="M1817.382,1538.627c-4.833-14.816,18.977-24.79,18.977-24.79s28.841,12.578,33.379,10.355-22.559-15.569-22.559-15.569c7.612-6.109,34.847-9.711,34.847-9.711s15.515,26.55,19.366,23.279-14.937-22.808-14.937-22.808c9.41-2.791,22.76,1.577,22.76,1.577,18.962,8.934,6.511,32.822,6.511,32.822s5.576,9.085,17.776,15.7h0a36.276,36.276,0,0,1,5.843,3.456l-2.144,1.4q-.827-.691-1.672-1.283a.015.015,0,0,0-.01-.007l-.025-.017c-.364-.235-.884-.568-1.523-.971h0l0,0c-1.495-.853-2.558-1.511-3.286-2.011a.014.014,0,0,1-.006-.005c-4.6-2.74-10.862-6.133-13.469-6a4.967,4.967,0,0,0-.184-1.284c.058.409.12.836.184,1.284,1.481,10.269-16.012,23.6-27.61,28.2s-9.03-1.2-6.589-9.49,14.783-14.607,16.99-18.674-3.977-2.64-10.45,2.349-5.417,14.036-15.741,22.3-32.277-6.957-32.277-6.957c9.148-2.62,20.033-15.743,18.84-18.708s-21.207,10.517-24.868,11.792S1822.215,1553.443,1817.382,1538.627Z" transform="translate(-563.476 -464.88)" fill="#bed2fa"/>
    <path id="Path_4415" data-name="Path 4415" d="M2117.132,1189.237c18.383-14.007,43.984,14.458,43.984,14.458s-3.519,46.53,1.811,51.8S2173.7,1216.3,2173.7,1216.3c12.273,7.673,30.625,44.047,30.625,44.047s-29.594,34.7-23.132,38.491,24.636-32.06,24.636-32.06c8.507,11.812,8.914,32.639,8.914,32.639-3.243,30.916-42.775,25.155-42.775,25.155s-10,12.246-13.3,32.564h0a53.765,53.765,0,0,1-1.983,9.87l-3.015-2.316q.563-1.5.98-2.968a.024.024,0,0,0,0-.019c0-.014.008-.028.012-.042.152-.624.364-1.515.615-2.607v0s0,0,0-.005c.465-2.51.866-4.32,1.211-5.584a.026.026,0,0,1,0-.011c1.589-7.778,3.28-18.206,1.817-21.789a7.37,7.37,0,0,0,1.707-.887l-1.707.887c-13.654,7.091-40.866-10.889-52.972-24.881s-2.727-13.232,10.067-13.864,27.676,13.561,34.448,14.663,1.754-6.858-8.394-13.483-22.3-.726-38.911-11.145-6.031-48.593-6.031-48.593c8.138,11.529,31.831,20.357,35.4,17.239s-25.09-24.555-28.662-29.059S2098.75,1203.244,2117.132,1189.237Z" transform="translate(-731.035 -275.129)" fill="#bed2fa"/>
    <g id="Group_960" data-name="Group 960" transform="translate(1052.826 836.478)">
      <path id="Path_4416" data-name="Path 4416" d="M1344.308,1266.838a95.053,95.053,0,0,1-36.364-29.288l29.091-34.988q22.8,31.456,54.645,31.45,42.844,0,42.851-50.713V1040.988h-97.888V998.137h148.995v182.41q0,48.355-23.588,72.532t-69.19,24.177A112.934,112.934,0,0,1,1344.308,1266.838Z" transform="translate(-1307.944 -998.137)" fill="#5d33d0"/>
      <path id="Path_4417" data-name="Path 4417" d="M1940.629,998.137H2042.5q37.282,0,66.252,17.1t44.946,48.355q15.98,31.253,15.98,72.139t-15.98,72.138q-15.981,31.254-44.946,48.355t-66.252,17.1H1940.629Zm99.878,231.944q25.633,0,45.112-11.6t29.964-33.022q10.487-21.423,10.487-49.73T2115.583,1086q-10.488-21.422-29.964-33.023t-45.112-11.6h-56.6v188.7Z" transform="translate(-1691.39 -998.137)" fill="#5d33d0"/>
    </g>
    <path id="Rectangle_280" data-name="Rectangle 280" d="M1.078,0H754.891a1.078,1.078,0,0,1,1.078,1.078v0a1.078,1.078,0,0,1-1.078,1.078H1.078A1.078,1.078,0,0,1,0,1.078v0A1.078,1.078,0,0,1,1.078,0Z" transform="translate(887 1113.115)" fill="#010117"/>
    <path id="Path_4418" data-name="Path 4418" d="M2523.516,1495.978s22.395,9.757,26.46,9.58,29.113-7.629,29.113-7.629l-.637,4.309s-19.331,11.118-26.089,11.749c-6.654.621-29.4-5.972-31.6-7.364S2517.134,1497.387,2523.516,1495.978Z" transform="translate(-989.033 -463.381)" fill="#ea8888"/>
    <path id="Path_4419" data-name="Path 4419" d="M2467.048,1404.237s-8.261-1.569-12.376,1.436c-7.453,5.443-7.854,24.208-10.647,27s-9.527,1.6-10.126,16.067,2.68,15.673-1.226,22.13,1.653,12.919,1.653,12.919-2.277-3.564-1.3-6.137c0,0,.948,5.678,4.555,7.009s4.14,2.307,4.716,4.259c0,0,30.772-15.768,30.806-26.952s6.055-22.262,3.1-27.109a10.719,10.719,0,0,1,1.478,4.38,5.767,5.767,0,0,0-1.3-6.565c-3.076-3.165,3.607-9.715,2.618-17.3C2478.315,1410.169,2474.661,1404.464,2467.048,1404.237Z" transform="translate(-935.929 -407.532)" fill="#0b0d59"/>
    <path id="Path_4420" data-name="Path 4420" d="M2498.675,1486.889a21.524,21.524,0,0,1-7.529,3.2c-11.6,2.681-16.052-7.127-17.722-13.86a9.986,9.986,0,0,1,3.931-1.208c.839-.1,1.721-.164,2.452-.2,1.3-1,3.245-5.083,3.675-11.426l.546.147,9.146,2.5s-.419,2.907-.624,5.655c-.159,2.15-.184,4.205.224,4.709.713.154,1.142.256,1.142.256a.015.015,0,0,0,0,.008A58.853,58.853,0,0,1,2498.675,1486.889Z" transform="translate(-961.47 -443.636)" fill="#fa958e"/>
    <path id="Path_4421" data-name="Path 4421" d="M2509.487,1466.279s-.421,2.905-.624,5.655c-5.182-.518-7.587-5.452-8.523-8.158Z" transform="translate(-977.783 -443.865)" fill="#ea8888"/>
    <path id="Path_4422" data-name="Path 4422" d="M2509.369,1444.569s-12.3-.679-11.759-8.332-.683-12.894,7.192-12.784,9.193,3.137,9.635,5.736S2512.583,1444.548,2509.369,1444.569Z" transform="translate(-976.118 -419.426)" fill="#fa958e"/>
    <path id="Path_4423" data-name="Path 4423" d="M2508.465,1422.482c-1.733-2.438-3.2-2.036-4.058-1.4a8.608,8.608,0,0,0-11.168.975,14.654,14.654,0,0,1-5.4,8.292s2.14,1.544,7.4.587a8.8,8.8,0,0,0,4.388-2.585,28.726,28.726,0,0,1-5.365,5.67c6.37-2.408,9.462-10.806,9.773-11.695a9.651,9.651,0,0,1,2.423,3.763c.473,1.992,2.511,5.108,3.69,5.055C2510.145,1431.142,2511.065,1426.138,2508.465,1422.482Z" transform="translate(-970.206 -417)" fill="#0b0d59"/>
    <path id="Path_4424" data-name="Path 4424" d="M2454.069,1527.492c-1.111-5.678-4.732-28.362-1.111-35.662,1.3-2.622,6.4-2.859,12-2.629,1.742,1.125,8.381,5.375,11.109,4.845.029-.006.082-.018.153-.036,1.284-.321,1.769-1.224.7-2a24.428,24.428,0,0,1,6.217.38c1.945.366,7.192,3.081,7.192,3.081s-2.643,4.773-6.538,6.421c.663,5.926-.323,8.541-6.47,22.228-5.2,11.57.7,21.988.7,21.988s-30.582,24.588-30.752,12.068C2447.142,1548.752,2455.489,1534.749,2454.069,1527.492Z" transform="translate(-945.618 -459.233)" fill="#fff"/>
    <path id="Path_4425" data-name="Path 4425" d="M2634.642,1685.526h-19.057s-.712-3.039.539-5.107c1.107-1.83.683-2.873-.137-4.387a7.4,7.4,0,0,0,3.21.6,6.711,6.711,0,0,0,2.834-1,68.627,68.627,0,0,0,5.429,5.7C2628.705,1682.238,2634.258,1681.919,2634.642,1685.526Z" transform="translate(-1047.506 -572.267)" fill="#3662c1"/>
    <path id="Path_4426" data-name="Path 4426" d="M2469.419,1511.072s-2.48,22.566,13.6,27.294,20.652-20.763,7.664-22.6A125.01,125.01,0,0,1,2469.419,1511.072Z" transform="translate(-958.959 -472.529)" fill="#bed2fa"/>
    <path id="Path_4427" data-name="Path 4427" d="M2599.131,1685.526h-19.057s-.713-3.039.538-5.107c1.108-1.83.683-2.873-.137-4.387a7.4,7.4,0,0,0,3.21.6,6.709,6.709,0,0,0,2.834-1,68.51,68.51,0,0,0,5.43,5.7C2593.194,1682.238,2598.748,1681.919,2599.131,1685.526Z" transform="translate(-1025.984 -572.267)" fill="#6c86d0"/>
    <g id="Group_961" data-name="Group 961" transform="translate(1515.162 1046.345)">
      <path id="Path_4428" data-name="Path 4428" d="M2500.326,1598.145a5.687,5.687,0,0,0,4.091-2.49q.221-.331.473-.712c3.481-5.27,4.836-21.408,12.666-38.6,1.908-4.186,8.754-4.939,10.62-9.671,0,0,4.594-15.336-8.794-15.789s-35.858,42.673-36.213,47.2C2482.824,1582.459,2474.315,1601.079,2500.326,1598.145Z" transform="translate(-2481.568 -1530.878)" fill="#e75755"/>
    </g>
    <g id="Group_962" data-name="Group 962" transform="translate(1545.693 1045.739)">
      <path id="Path_4429" data-name="Path 4429" d="M2575.581,1534.382c1.148,8.6,5.629,35.756,13.533,49,2.548,4.271-6.421,6.665-6.469,6.652-1.2-.315-3.208-2.233-4.131-3.065-6.418-5.783-19.445-22.161-19.445-35.291,0-6.4-.113-18.629,4.543-21.737C2566.479,1528.032,2575.125,1530.966,2575.581,1534.382Z" transform="translate(-2559.069 -1529.34)" fill="#ed6966"/>
    </g>
    <g id="Group_963" data-name="Group 963" transform="translate(1500.63 1045.367)">
      <path id="Path_4430" data-name="Path 4430" d="M2466.6,1596.286s.706-.983,1.938-2.849c1.466-2.22,3.087-6.588,5.055-12.188,2.067-5.878,4.519-13.111,7.584-20.635.946-2.323,1.95-4.674,3.018-7.021,1.907-4.186,7.154-3.607,9.021-8.339,0,0,7.284-16.4-6.105-16.856s-38.831,43.88-40.293,48.174C2445.221,1581.272,2437.412,1600.79,2466.6,1596.286Z" transform="translate(-2444.678 -1528.394)" fill="#fa7269"/>
    </g>
    <g id="Group_964" data-name="Group 964" transform="translate(1527.822 1064.888)">
      <path id="Path_4431" data-name="Path 4431" d="M2515.432,1611.281c2.067-5.878,4.519-13.111,7.584-20.635-.8-5.7-2.527-10.689-5.43-12.7C2517.586,1577.947,2510.544,1599.764,2515.432,1611.281Z" transform="translate(-2513.705 -1577.947)" fill="#ed6966"/>
    </g>
    <g id="Group_965" data-name="Group 965" transform="translate(1531.704 1046.081)">
      <path id="Path_4432" data-name="Path 4432" d="M2542.936,1534.3c1.147,8.6,2.764,36.366,10.668,49.613,2.549,4.271-6.421,6.665-6.469,6.652-1.2-.315-3.207-2.233-4.131-3.065-6.417-5.783-19.445-22.161-19.445-35.291,0-6.4,7.513-18.116,12.168-21.223A4.683,4.683,0,0,1,2542.936,1534.3Z" transform="translate(-2523.559 -1530.206)" fill="#fa7269"/>
    </g>
    <g id="Group_966" data-name="Group 966" transform="translate(1564.44 1021.381)">
      <path id="Path_4433" data-name="Path 4433" d="M2634.55,1469.586l-19.516-2.073a1.261,1.261,0,0,0-1.311.8l-6.982,18.348a1.26,1.26,0,0,0,1.126,1.707l19.365.781a1.26,1.26,0,0,0,1.213-.773l7.134-17.056A1.26,1.26,0,0,0,2634.55,1469.586Z" transform="translate(-2606.657 -1467.506)" fill="#3662c1"/>
    </g>
    <g id="Group_967" data-name="Group 967" transform="translate(1566.135 1021.558)">
      <path id="Path_4434" data-name="Path 4434" d="M2638.853,1470.037l-19.516-2.073a1.259,1.259,0,0,0-1.311.8l-6.983,18.348a1.26,1.26,0,0,0,1.126,1.707l19.365.781a1.26,1.26,0,0,0,1.213-.772l7.133-17.056A1.26,1.26,0,0,0,2638.853,1470.037Z" transform="translate(-2610.96 -1467.957)" fill="#6c86d0"/>
    </g>
    <g id="Group_968" data-name="Group 968" transform="translate(1580.762 1031.02)">
      <path id="Path_4435" data-name="Path 4435" d="M2650.539,1493.159a.8.8,0,0,0-.754-1.185,1.876,1.876,0,0,0-1.618,1.185.8.8,0,0,0,.754,1.186A1.877,1.877,0,0,0,2650.539,1493.159Z" transform="translate(-2648.09 -1491.974)" fill="#3662c1"/>
    </g>
    <g id="Group_969" data-name="Group 969" transform="translate(1592.241 1024.789)">
      <path id="Path_4436" data-name="Path 4436" d="M2678.432,1476.742a.394.394,0,0,0-.37-.583.923.923,0,0,0-.8.583.4.4,0,0,0,.371.583A.921.921,0,0,0,2678.432,1476.742Z" transform="translate(-2677.229 -1476.159)" fill="#3662c1"/>
    </g>
    <path id="Path_4437" data-name="Path 4437" d="M2466.325,1495.978s27.048,9.961,31.112,9.757c2.627-.132,24.461-7.807,24.461-7.807l1.961,3.708s-21.252,13.659-27.094,13.592c-11.535-.133-31-7.214-33.194-8.605S2459.942,1497.387,2466.325,1495.978Z" transform="translate(-954.371 -463.381)" fill="#fa958e"/>
    <path id="Path_4438" data-name="Path 4438" d="M2614.494,1496.145s1.961-3.016,3.912-3.105,5.323,1.331,6.476,1.553,4.436,1.287,3.46,2.884-5.5,1.952-7.452,1.6a9.047,9.047,0,0,0-4.436.781Z" transform="translate(-1046.967 -461.598)" fill="#fa958e"/>
    <path id="Path_4439" data-name="Path 4439" d="M2623.076,1490.53s3.1-1.424,3.991-1.69.71,0,.444.845-1.863,1.643-1.863,1.907S2623.076,1490.53,2623.076,1490.53Z" transform="translate(-1052.168 -458.996)" fill="#fa958e"/>
    <path id="Path_4440" data-name="Path 4440" d="M2669.96,1491.858s-1.957-3.1-2.6-3.223c-1.952-.386-1.952,2.185-1.538,3.843.444,1.779,1.948,3.458,2.364,3.311S2670.42,1493.493,2669.96,1491.858Z" transform="translate(-1077.943 -458.907)" fill="#fa958e"/>
    <path id="Path_4441" data-name="Path 4441" d="M2672.739,1498.451a5.181,5.181,0,0,1-2.672,5.285Z" transform="translate(-1080.647 -464.88)" fill="#fa958e"/>
    <path id="Path_4442" data-name="Path 4442" d="M2478.763,1499.925a14.862,14.862,0,0,1-10.728,9.4s-13.72-4.227-6.888-13.574C2461.147,1495.751,2467.9,1490.733,2478.763,1499.925Z" transform="translate(-952.874 -462.415)" fill="#fff"/>
    <path id="Path_4443" data-name="Path 4443" d="M1538.846,824.994s3.583,5.3,5.627,16.449c1.79,9.762,3.359,13.367,5.944,15.369s16.986,7.913,16.986,7.913l-1.077,2.523s-21.108-2.875-23.479-6.4-11.41-24.371-10.709-29.172S1538.846,824.994,1538.846,824.994Z" transform="translate(-390.97 -56.724)" fill="#ea8888"/>
    <path id="Path_4444" data-name="Path 4444" d="M1678.688,1098.142c-.19,2.059,2.676,2.559,6,2.724s2.316.845,6.865,1.669,6.372-.421,6.7-1.036c.294-.545-1.822-1.4-4.076-2.362-.284-.12-.567-.244-.852-.368-2.537-1.115-3.96-3.391-5.938-5.5-1.874-2-3.652-8.4-3.652-8.4l-6.182-1.32s1.736,5.757,2.338,8.215a7.617,7.617,0,0,1-.633,4.293A8.052,8.052,0,0,0,1678.688,1098.142Z" transform="translate(-479.122 -213.428)" fill="#fc9290"/>
    <path id="Path_4445" data-name="Path 4445" d="M1686.419,1120.109c3.32.165,2.316.845,6.865,1.669s6.372-.421,6.7-1.036c.293-.545-1.822-1.4-4.076-2.362l-.035.038a12.948,12.948,0,0,1-6.891.082c-3.009-.817-5.919-2.615-7.992-3.2a8.052,8.052,0,0,0-.568,2.08C1680.234,1119.443,1683.1,1119.944,1686.419,1120.109Z" transform="translate(-480.858 -232.67)" fill="#e75755"/>
    <path id="Path_4446" data-name="Path 4446" d="M1511.772,927.377s41.078-3.092,48.811,1.789,20.136,61.731,20.136,61.731a5.047,5.047,0,0,1-2.475.8,20.771,20.771,0,0,1-5.092-.763s-17.825-25.437-19.08-31.845-.949-12.126-3.808-12.279-38.5,4.333-43.889-5.164-.934-18.9-.934-18.9Z" transform="translate(-373.765 -115.968)" fill="#ed6966"/>
    <path id="Path_4447" data-name="Path 4447" d="M1638.787,1114.89c-.189,2.059,2.677,2.559,6,2.724s2.316.845,6.865,1.669,6.372-.42,6.7-1.035c.293-.545-1.822-1.4-4.075-2.362-.284-.12-.568-.244-.852-.368-2.536-1.115-3.96-3.391-5.938-5.5-1.873-2-3.652-8.395-3.652-8.395l-6.182-1.32s1.736,5.757,2.339,8.215a7.615,7.615,0,0,1-.633,4.292A8.1,8.1,0,0,0,1638.787,1114.89Z" transform="translate(-454.94 -223.578)" fill="#fc9290"/>
    <path id="Path_4448" data-name="Path 4448" d="M1646.518,1136.857c3.319.165,2.316.845,6.865,1.669s6.372-.42,6.7-1.035c.293-.545-1.822-1.4-4.075-2.362l-.036.039a12.95,12.95,0,0,1-6.89.082c-3.009-.817-5.919-2.615-7.992-3.2a8.1,8.1,0,0,0-.569,2.08C1640.333,1136.191,1643.2,1136.692,1646.518,1136.857Z" transform="translate(-456.675 -242.82)" fill="#e75755"/>
    <path id="Path_4449" data-name="Path 4449" d="M1485.88,940.963s36.491,1.727,44.029,6.905,17.718,62.468,17.718,62.468a5.049,5.049,0,0,1-2.5.7,20.758,20.758,0,0,1-5.059-.961s-16.821-26.111-17.826-32.563-.476-12.154-3.327-12.418-38.637,2.831-43.654-6.869S1485.88,940.963,1485.88,940.963Z" transform="translate(-355.918 -127.008)" fill="#fa7269"/>
    <g id="Group_970" data-name="Group 970" transform="translate(1108.027 731.4)">
      <path id="Path_4450" data-name="Path 4450" d="M1483.008,733.654a9.463,9.463,0,0,0-5.046-1.318,2.4,2.4,0,0,1,1.112-.44,7.941,7.941,0,0,0-2.877.549c-11.856-5.5-14.964,12.29-14.985,16.47s-.312,8.973-6.636,12.3c-12.442,6.549-3.212,20.046-3.212,20.046.09.062,8.292,10.922,8.292,10.922-.083-3.384,13.269-21.325,21.721-26.1,2.165-2.771,3.207-7.85,3.287-8.251a22.2,22.2,0,0,1-2.166,7.519C1489.776,759.5,1487.3,736.487,1483.008,733.654Z" transform="translate(-1448.07 -731.4)" fill="#0b0d59"/>
    </g>
    <path id="Path_4451" data-name="Path 4451" d="M1499.772,809.269a41.091,41.091,0,0,1,6.8,0,21.824,21.824,0,0,1,5.9,1.48c3.216,1.345,2.879,7.039-3.87,5.984S1499.3,810.958,1499.772,809.269Z" transform="translate(-371.344 -47.107)" fill="#fa958e"/>
    <path id="Path_4452" data-name="Path 4452" d="M1512.75,800.564c.039.021.963,4.9-3.456,4.7-2.9-.128-9.157-3.638-8.6-6.121.263-1.181,2.455-4.244,2.9-11.235l.528.141,8.879,2.382s-.394,2.818-.578,5.485C1512.258,798.158,1512.253,800.291,1512.75,800.564Z" transform="translate(-371.912 -34.249)" fill="#fa958e"/>
    <path id="Path_4453" data-name="Path 4453" d="M1518.312,790.651s-.394,2.818-.577,5.485c-5.026-.478-7.38-5.248-8.3-7.867Z" transform="translate(-377.232 -34.466)" fill="#ea8888"/>
    <path id="Path_4454" data-name="Path 4454" d="M1502.959,757.687a26.527,26.527,0,0,1-2.756-7.952c-.282-2.576,1.643-11.923,11.032-9.932a12.908,12.908,0,0,1,5.207,2.375c1.966,1.527,4.736,4.727.866,12.737l-1.048,2.723Z" transform="translate(-371.623 -4.926)" fill="#0b0d59"/>
    <path id="Path_4455" data-name="Path 4455" d="M1518.191,769.554s-11.925-.6-11.439-8.019-.725-12.5,6.91-12.428,8.927,3,9.367,5.513S1521.305,769.517,1518.191,769.554Z" transform="translate(-375.599 -10.731)" fill="#fa958e"/>
    <path id="Path_4456" data-name="Path 4456" d="M1504.943,741.271s-5.247,11.592-12.2,12.894-9.8-.727-9.8-.727a19.4,19.4,0,0,0,7.094-11.015S1501.96,735.388,1504.943,741.271Z" transform="translate(-361.18 -4.561)" fill="#0b0d59"/>
    <path id="Path_4457" data-name="Path 4457" d="M1535.945,749.248s2.307,2.106,2.774,4.035.475,5.837,1.618,5.78c0,0,2.852-5.753.313-9.285C1537.959,746.034,1535.945,749.248,1535.945,749.248Z" transform="translate(-393.3 -10.039)" fill="#0b0d59"/>
    <path id="Path_4458" data-name="Path 4458" d="M1507.831,859.358c-.966,1.154-3.978,1.508-7.2,2.038a21.632,21.632,0,0,0-7.089,2.055c-4.3,2.524-18.344,11.054-22.46,10.666-1.6-.15-1.3-3.2-.331-7.239,1.522-6.384,4.707-15.25,4.707-19.1A111.929,111.929,0,0,1,1477.094,835q.114-.688.231-1.389c1.849-11.067,4.41-24.117,4.41-24.117s2.856,6.232,8.422,6.232,4.272-4.753,4.272-4.753,5.078.6,6.278,1.89a49.614,49.614,0,0,1,4.847,8.4s.124,1.938-4.676,2.861a63,63,0,0,1,1.308,8.77c.1,2.591-1.768,10.7-2.307,15.746a9.308,9.308,0,0,0,.074,3.824,7.426,7.426,0,0,0,2.938,2.423C1505.6,856.466,1508.977,857.986,1507.831,859.358Z" transform="translate(-353.307 -47.329)" fill="#93b3f4"/>
    <path id="Path_4459" data-name="Path 4459" d="M1502.891,886.808c3.081,5.252-8.354,6.831-10.247,7.943-4.3,2.524-17.445,11.675-21.562,11.287-1.6-.15-1.3-3.2-.331-7.239,1.522-6.384,4.707-15.25,4.707-19.1a111.929,111.929,0,0,1,1.635-12.775l4.955-4.758s5.309,13.723,10.371,15.972a42.6,42.6,0,0,0,7.458,2.428,9.308,9.308,0,0,0,.074,3.824A7.426,7.426,0,0,0,1502.891,886.808Z" transform="translate(-353.307 -79.249)" fill="#6d89cf"/>
    <path id="Path_4460" data-name="Path 4460" d="M1481.289,818.876s-4.237-2.573-8.333,2.308,2.912,39.77,8.981,41.562c6.742,1.991,26.218-.319,26.218-.319l-.375-3.044s-20.733-3.976-21.595-5.083S1483.443,819.439,1481.289,818.876Z" transform="translate(-354.384 -52.606)" fill="#fa958e"/>
    <path id="Path_4461" data-name="Path 4461" d="M1477.56,809.49s-8.7.785-11.228,3.647-3.265,10.616-3.265,10.616,7.662,6.185,16.894,3.785Z" transform="translate(-349.132 -47.327)" fill="#93b3f4"/>
    <path id="Path_4462" data-name="Path 4462" d="M1592.329,911.644c.113-.449,10.565-16.862,10.565-16.862h23.256L1614.485,911.2Z" transform="translate(-427.472 -99.02)" fill="#9e332e"/>
    <g id="Group_971" data-name="Group 971" transform="translate(1155.805 811.453)">
      <rect id="Rectangle_281" data-name="Rectangle 281" width="11.492" height="1.358" fill="#9e332e"/>
    </g>
    <g id="Group_972" data-name="Group 972" transform="translate(1165.835 795.762)">
      <path id="Path_4463" data-name="Path 4463" d="M1594.813,911.83c.112-.449,10.6-17.048,10.6-17.048h22.244l-11.1,17.048Z" transform="translate(-1594.813 -894.782)" fill="#e75755"/>
    </g>
    <g id="Group_973" data-name="Group 973" transform="translate(1182.966 803.138)">
      <path id="Path_4464" data-name="Path 4464" d="M1640.778,914.708a1.857,1.857,0,0,1-1.619,1.2.83.83,0,0,1-.789-1.2,1.858,1.858,0,0,1,1.619-1.2A.829.829,0,0,1,1640.778,914.708Z" transform="translate(-1638.3 -913.504)" fill="#9e332e"/>
    </g>
    <path id="Path_4465" data-name="Path 4465" d="M1558.942,920.7s6.751-1.307,7.513-.98,5.009,4.138,4.573,4.9-2.178,1.307-4.138.654-6.206-.98-6.968-1.96A6.394,6.394,0,0,1,1558.942,920.7Z" transform="translate(-407.238 -114.101)" fill="#fa958e"/>
    <path id="Path_4466" data-name="Path 4466" d="M1327.961,1242.758c-.961,2.583-2.626,5.582-4.374,6.328a6.771,6.771,0,0,0-2.808,2.04l-1.6-.928-1.911-1.111s.045-.212.139-.558.236-.824.429-1.355a1.849,1.849,0,0,0,.227-1.7,3.951,3.951,0,0,1,.325-3.3c.613-.89,1.2-3.085,1.574-3.02.894.154-.439,3.17-.057,3.73a.661.661,0,0,0,.859.294l.015-.009c2.507-1.1,5.548-7.045,6.894-6.244C1328.176,1237.226,1328.37,1241.657,1327.961,1242.758Z" transform="translate(-260.769 -306.334)" fill="#fc9290"/>
    <g id="Group_974" data-name="Group 974" transform="translate(1058.31 927.677)">
      <path id="Path_4467" data-name="Path 4467" d="M1322.073,1241.987l3.141,2.208a.494.494,0,0,0,.687-.121l8.046-11.448a.5.5,0,0,0-.12-.687l-3.141-2.208a.494.494,0,0,0-.687.12l-8.046,11.449A.494.494,0,0,0,1322.073,1241.987Z" transform="translate(-1321.864 -1229.643)" fill="#0b0754"/>
    </g>
    <g id="Group_975" data-name="Group 975" transform="translate(1061.235 929.719)">
      <path id="Path_4468" data-name="Path 4468" d="M1329.448,1247.149l1.841,1.294a.376.376,0,0,0,.523-.092l8.181-11.641a.376.376,0,0,0-.091-.522l-1.841-1.294a.376.376,0,0,0-.523.091l-8.181,11.641A.376.376,0,0,0,1329.448,1247.149Z" transform="translate(-1329.289 -1234.826)" fill="#060632"/>
    </g>
    <path id="Path_4469" data-name="Path 4469" d="M1194.636,1219.277s15.982,27.875,21.78,33l21.26-15.85a7.758,7.758,0,0,1,4.435,4.042s-12.91,26.3-25.621,27.417-30.551-31.526-30.551-31.526Z" transform="translate(-181.175 -295.683)" fill="#060632"/>
    <path id="Path_4470" data-name="Path 4470" d="M1091.041,1671.715h-9.234a5.6,5.6,0,0,1-2.526-4.231c-.451-2.975-3.785-4.6-4.507-7.031s2.975-5.857,2.975-5.857l.618-.8.643-.827,6.129,1.443s.152,1.459.244,3.318c.067,1.342.1,2.891.027,4.251-.18,3.244.907,6.739,3.79,7.37C1091.331,1669.822,1091.236,1671.087,1091.041,1671.715Z" transform="translate(-113.746 -558.53)" fill="#060632"/>
    <path id="Path_4471" data-name="Path 4471" d="M1218.707,1683.935H1197.59c-1.016-1.24-.641-5.813-.488-7.307.032-.3.054-.476.054-.476s7.211-5.768,8.2-1.352c.03.139.067.274.107.408,1.248,4.131,6.845,6.008,10.077,6.532A3.661,3.661,0,0,1,1218.707,1683.935Z" transform="translate(-187.822 -570.75)" fill="#060632"/>
    <path id="Path_4472" data-name="Path 4472" d="M1194.964,1398.414s-1.1,13.662-2.382,30.084c-1.749,22.307-3.852,49.709-4.061,54.9-.36,9.013-1.8,23.432-1.8,23.432s-3.423,3.425-10.274,1.982a235.855,235.855,0,0,1-7.849-42.361q-.041-.536-.081-1.076c-1.622-22.17-4.145-68.854-4.145-68.854Z" transform="translate(-168.103 -403.105)" fill="#fa7269"/>
    <path id="Path_4473" data-name="Path 4473" d="M1194.964,1398.414s-1.1,13.662-2.382,30.084l-23.986,37.954q-.041-.536-.081-1.076c-1.622-22.17-4.145-68.854-4.145-68.854Z" transform="translate(-168.103 -403.105)" fill="#ed6966"/>
    <path id="Path_4474" data-name="Path 4474" d="M1140.327,1391.718s-19.737,49.477-32.714,72.729-17.033,29.74-17.033,29.74-7.435-2.974-8.111-5c0,0,4.962-44.888,13.653-55.83,4.911-6.183,10.68-24.739,10.95-31.228s1.757-19.331,1.757-19.331Z" transform="translate(-118.466 -394.786)" fill="#fa7269"/>
    <path id="Path_4475" data-name="Path 4475" d="M1184.471,1190.71c-7.712,2.433-21.057-4.134-21.057-4.134s7.111-5.337,6.739-16.433l5.963,4.805,4.051,3.264a48.485,48.485,0,0,1-.459,5.3c-.117.887-.262,1.876-.446,2.957A18.451,18.451,0,0,1,1184.471,1190.71Z" transform="translate(-167.524 -265.905)" fill="#fc9290"/>
    <path id="Path_4476" data-name="Path 4476" d="M1190.5,1185.427a48.522,48.522,0,0,1-.459,5.3c-4.489-.77-9.58-8.024-9.58-8.024a14.3,14.3,0,0,1,5.988-.537Z" transform="translate(-177.852 -273.12)" fill="#ea8888"/>
    <path id="Path_4477" data-name="Path 4477" d="M1188.485,1157.739s-12.74,2.116-13.936-5.837-3.645-13.037,4.438-14.725,10.124,1.109,11.169,3.667S1191.767,1156.983,1188.485,1157.739Z" transform="translate(-173.483 -245.615)" fill="#fc9290"/>
    <path id="Path_4478" data-name="Path 4478" d="M1184.418,1282.913a1.248,1.248,0,0,1-.811.309c-2.9-.039-11.342,1.569-18.488.835a53.23,53.23,0,0,1-17.083-4.93c-.76-.34-2.51-1.274-2.471-2.125.026-.931.118-2.28.234-3.98a212.869,212.869,0,0,0,.423-27.805c-.124-2.184-.189-4.35-.2-6.483-.059-15.9,3.093-29.877,9.427-34.609.541-.388,3.862,1.235,6.914,2.741a12.633,12.633,0,0,0,8.3,1.005l2.664,2.355a26.623,26.623,0,0,1,8.342,13.324c1.314,5.291,2.086,14.831,2.511,24.719.193,4.48.348,9,.387,13.286v.154c.038.425.038.889.038,1.314C1184.766,1274.029,1184.611,1282.757,1184.418,1282.913Z" transform="translate(-156.706 -286.465)" fill="#0b0754"/>
    <path id="Path_4479" data-name="Path 4479" d="M1146.16,1309.368a212.864,212.864,0,0,0,.423-27.805c-.124-2.184-.189-4.35-.2-6.483,2.639-6.4,4.795-11.042,4.795-11.042h6.651S1162.707,1297.341,1146.16,1309.368Z" transform="translate(-157.067 -322.811)" fill="#060632"/>
    <g id="Group_976" data-name="Group 976" transform="translate(949.205 998.518)">
      <path id="Path_4480" data-name="Path 4480" d="M1050.728,1435.252l28.363,4.042a6.8,6.8,0,0,0,7.668-5.755l1.751-12.291a6.8,6.8,0,0,0-5.755-7.668l-28.363-4.042a6.8,6.8,0,0,0-7.668,5.755l-1.751,12.291A6.8,6.8,0,0,0,1050.728,1435.252Z" transform="translate(-1044.905 -1409.47)" fill="#060632"/>
    </g>
    <g id="Group_978" data-name="Group 978" transform="translate(945.447 994.832)">
      <g id="Group_977" data-name="Group 977" transform="translate(0)">
        <path id="Path_4481" data-name="Path 4481" d="M1078.575,1411.573v0a6.832,6.832,0,0,0-4.7-4.1h0l-.005,0c-.214-.052-.431-.1-.655-.127l-5.648-.8.378-2.653a2.247,2.247,0,0,0-1.906-2.539l-1.473-.21-5.93-.845-1.069-.152a2.248,2.248,0,0,0-2.539,1.906l-.377,2.652-9.749-1.39a6.827,6.827,0,0,0-7.7,5.776l-1.77,12.435a6.824,6.824,0,0,0,5.776,7.7l28.312,4.036a6.666,6.666,0,0,0,1.477.047H1071a6.7,6.7,0,0,0,2.209-.558,6.818,6.818,0,0,0,4.006-5.267l1.773-12.433A6.749,6.749,0,0,0,1078.575,1411.573Zm-22.155-9.332a.84.84,0,0,1,.7-.708.87.87,0,0,1,.252,0l1.259.179,4.667.667,2.544.362a.839.839,0,0,1,.711.947l-.377,2.653-10.131-1.445Z" transform="translate(-1035.365 -1400.113)" fill="#0b0754"/>
      </g>
    </g>
    <path id="Path_4482" data-name="Path 4482" d="M1101.188,1379.03a9.85,9.85,0,0,0-1.549,2.777c-.4,5.373,2.055,6.117-4.3,9.1,0,0-2.714,1.035-2.76-1.072s1.883-2.141,1.531-5.091c-.407-3.4-.366-3.434,1.867-5.211l1.479-2.444Z" transform="translate(-124.592 -391.328)" fill="#fc9290"/>
    <path id="Path_4483" data-name="Path 4483" d="M1099.756,1277.4a21.8,21.8,0,0,0,4.99.278s7.11-21.963,8.025-23.969,21.117-25.752,21.117-25.752l-8.416-21.062s-21.851,36.5-24.07,41.629c-3.667,8.475-4.939,27.477-4.939,27.477A9.149,9.149,0,0,0,1099.756,1277.4Z" transform="translate(-126.948 -288.18)" fill="#0b0754"/>
    <path id="Path_4484" data-name="Path 4484" d="M1171.758,1142.311s1.307-.218,1.1-2.019-.208-4.154,1.256-3.715,1.537,1.611,2.139.926.612-3.568,4.968-3.769,6.127,1.315,8.152.425,2.132-3.957,2.132-3.957a3.485,3.485,0,0,1-1.446,1.443s3.38-4.622-.533-7.792-7.9-1.095-10.167-.958c-4.989.3-8.212.6-9.841,3.88S1168.557,1139.155,1171.758,1142.311Z" transform="translate(-170.702 -236.789)" fill="#030231"/>
    <path id="Path_4485" data-name="Path 4485" d="M1108.275,1388.011s1.434,1.5,1.525,2.117c.29,2,.957,2.86.623,3.076-.695.452-1.614-1.027-2.053-2.354A6.061,6.061,0,0,1,1108.275,1388.011Z" transform="translate(-134.028 -397.947)" fill="#fc9290"/>
    <path id="Path_4486" data-name="Path 4486" d="M1824.855,1295.928c0-.129,1.89-4.037,1.289-4.338s-1.678-.255-1.8.429A23.887,23.887,0,0,0,1824.855,1295.928Z" transform="translate(-568.075 -339.402)" fill="#ea8888"/>
    <path id="Path_4487" data-name="Path 4487" d="M1897.29,1167.813s11.083-13.317,16.95-4.8c0,0,4.377,1.816,5.96,9.267,1.615,7.6-3.439,13.379-6.053,11.952-1.677-.916-2.945,2.018-2.945,2.018Z" transform="translate(-612.297 -259.861)" fill="#0b0d59"/>
    <path id="Path_4488" data-name="Path 4488" d="M1835.787,1297.848c-8.811-3.246-17.3-18.324-17.3-18.324l2.779-1.944c2.314,3.385,12.727,9.885,12.727,9.885.238-2.853.583-5.442,1.009-7.786,2.891-15.935,9.5-20.655,11.278-21.657a4.068,4.068,0,0,1,.448-.226s-.006.117-.02.339c-.025.479-.082,1.446-.174,2.771C1845.848,1270.77,1843.149,1300.562,1835.787,1297.848Z" transform="translate(-564.54 -319.028)" fill="#ea8888"/>
    <path id="Path_4489" data-name="Path 4489" d="M1937.243,1157.112s1.49-5.961,10.244-4.1c0,0-4.191-.528-5.339,1.086,0,0,3.322-1.521,5.4-.248s2.421,5.557,2.111,6.86-2.607,5.185-4.129,5.185a7,7,0,0,1-3.321-1.335Z" transform="translate(-636.511 -255.305)" fill="#0b0d59"/>
    <path id="Path_4490" data-name="Path 4490" d="M1915.738,1292.433c-4.353-9.762-6.435-12.523-6.508-15.594-.058-2.429,1.14-5.049,3.466-11.475a23.945,23.945,0,0,0,1.159-4.645c1.84-12.389-5.324-25.781-9.777-26.693-1.239-.328-3.339-4.8-3.313-12.012l-.557.109-9.376,1.857s.213,2.95.22,5.73c.006,2.317-.134,4.512-.658,4.788-.675.061-1.073.1-1.073.1s-7.817,10.857-8.475,20.953,6.26,14.484-.052,34.661C1874.349,1310.822,1918.143,1297.827,1915.738,1292.433Z" transform="translate(-601.907 -297.342)" fill="#fa958e"/>
    <path id="Path_4491" data-name="Path 4491" d="M1907.274,1224.149s.213,2.95.22,5.73c5.246-.148,8.02-4.934,9.156-7.586Z" transform="translate(-618.348 -297.511)" fill="#ea8888"/>
    <path id="Path_4492" data-name="Path 4492" d="M1908.534,1190.065a27.564,27.564,0,0,0,3.409-8.059c.471-2.652-.879-12.482-10.758-11.067a13.425,13.425,0,0,0-5.566,2.1c-2.144,1.449-5.24,4.576-1.779,13.154l.9,2.9Z" transform="translate(-609.265 -266.304)" fill="#0b0d59"/>
    <path id="Path_4493" data-name="Path 4493" d="M1896.466,1201.463s12.413.2,12.421-7.527,1.617-12.913-6.308-13.37-9.468,2.491-10.1,5.071S1893.238,1201.21,1896.466,1201.463Z" transform="translate(-609.293 -272.193)" fill="#fa958e"/>
    <path id="Path_4494" data-name="Path 4494" d="M1903.992,1177.739s3.4,9.071,8.615,10.412,7.478-.056,7.478-.056a14.769,14.769,0,0,1-4.831-8.726S1906.556,1173.422,1903.992,1177.739Z" transform="translate(-616.359 -269.557)" fill="#0b0d59"/>
    <path id="Path_4495" data-name="Path 4495" d="M1896.462,1179.75s-2.538,2.025-3.157,3.994-.9,6.022-2.078,5.885c0,0-2.56-6.166.318-9.654C1894.6,1176.277,1896.462,1179.75,1896.462,1179.75Z" transform="translate(-607.987 -270.831)" fill="#0b0d59"/>
    <path id="Path_4496" data-name="Path 4496" d="M1903.869,1498.419a122.665,122.665,0,0,1-7.824,21.948l-4.093-.284a115.734,115.734,0,0,0,1.892-22.453,94.013,94.013,0,0,0-4.761-29.861c-12.248-34.979-10.268-60.437-10.268-60.437l23.032,2.694,1.073.126c.1,10.578.369,24.939.608,36.17.211,10.1.4,17.665.4,17.665C1908.353,1473.524,1906.744,1486.986,1903.869,1498.419Z" transform="translate(-601.028 -409.656)" fill="#060632"/>
    <path id="Path_4497" data-name="Path 4497" d="M1967.739,1320.923l-3.726,1.118s-12.293-20.4-13.41-25.7c-.365-1.728-1.259-5.185-2.3-9.059-2.159-8.023-4.944-17.839-4.944-17.839l-.918-3.974-3.129-13.552s5.992.613,9.5,2.078a4.358,4.358,0,0,1,2.355,1.74c2.575,5.661,5.145,19.948,6.951,30.14,1.007,5.681,1.775,10.09,2.176,11.024C1961.406,1299.5,1964.821,1313.846,1967.739,1320.923Z" transform="translate(-637.764 -315.464)" fill="#fa958e"/>
    <path id="Path_4498" data-name="Path 4498" d="M1934.358,1488.973c-1.325,14.134-7.156,23.273-7.156,23.273l-1.955,1.422s-1.85-9.958-3.161-21.8c-1.248-11.26-2.958-23.175-4.893-26.812-7.681-14.424-9.993-68.874-9.993-68.874l23.352-1.158c2.349,3.948,3.373,10.424,3.616,17.788.615,18.583-3.754,42.814-4.407,46.319a.017.017,0,0,1,0,.008,1.223,1.223,0,0,0,.153.783C1934.559,1469.114,1935.23,1479.636,1934.358,1488.973Z" transform="translate(-618.304 -402.194)" fill="#0b0754"/>
    <path id="Path_4499" data-name="Path 4499" d="M1904.934,1179.005s2.422,9.5,9,12.541c0,0-6.581-5.836-7.14-12.107S1904.934,1179.005,1904.934,1179.005Z" transform="translate(-616.93 -269.779)" fill="#0b0d59"/>
    <path id="Path_4500" data-name="Path 4500" d="M1912.1,1318.14a5.535,5.535,0,0,1-.145,1.866c-.5,1.563-2.2,2.276-6.329,1.85-2.521-.262-3.646-4.488-4.146-8.093q-2.272,7.737-6.376,8.66c-4,.89-24.173,3.343-25.494-6.248-1.452-10.548,2.9-29.225,3.136-39.295a49.858,49.858,0,0,1-.732-9.332c.169-7.173,2.274-11.194,3.893-12.813.458-.352.917-.572,2.758-.887.941-.16,2.244-.346,4.091-.589a6.945,6.945,0,0,1,.736-.058c-.342.61-4.911,7.529-4.555,9.308.373,1.862,16.578.186,17.7-.838s2.886-8.869,2.886-8.869,5.739.628,8.546,2.669l-.03.036a2.356,2.356,0,0,1,.738.777c3,5.7,5.986,20.091,8.089,30.355a14.947,14.947,0,0,1-10.934,1.6C1907.735,1300.063,1911.832,1312.754,1912.1,1318.14Z" transform="translate(-595.342 -316.002)" fill="#fa7269"/>
    <path id="Path_4501" data-name="Path 4501" d="M1815.072,1292.84c0-.384.321-5.928-.665-7.093s-3-2.821-3.636-2.77-3.112,3.345-2.367,5.869,3.89,5.939,3.89,5.939Z" transform="translate(-558.343 -334.288)" fill="#ea8888"/>
    <g id="Group_979" data-name="Group 979" transform="translate(1251.762 940.107)">
      <path id="Path_4502" data-name="Path 4502" d="M1822.429,1272.857l-5.746,1.722a.36.36,0,0,1-.448-.241l-3.284-10.956a.36.36,0,0,1,.242-.449l5.746-1.722a.362.362,0,0,1,.449.242l3.283,10.956A.36.36,0,0,1,1822.429,1272.857Z" transform="translate(-1812.935 -1261.195)" fill="#fa7269"/>
    </g>
    <g id="Group_980" data-name="Group 980" transform="translate(1250.604 940.542)">
      <path id="Path_4503" data-name="Path 4503" d="M1819.155,1273.975l-5.212,1.562a.639.639,0,0,1-.8-.428l-3.124-10.422a.639.639,0,0,1,.428-.8l5.212-1.562a.639.639,0,0,1,.8.429l3.124,10.422A.639.639,0,0,1,1819.155,1273.975Z" transform="translate(-1809.996 -1262.301)" fill="#e75755"/>
    </g>
    <path id="Path_4504" data-name="Path 4504" d="M1957.261,1633.518c-1.325,14.134-7.156,23.273-7.156,23.273l-1.991,1.813s-1.815-10.349-3.125-22.2C1946.369,1636.508,1952.453,1636.73,1957.261,1633.518Z" transform="translate(-641.206 -546.739)" fill="#fa958e"/>
    <path id="Path_4505" data-name="Path 4505" d="M1924.262,1637.339a122.665,122.665,0,0,1-7.824,21.948l-4.093-.284a115.733,115.733,0,0,0,1.892-22.453C1915.626,1637.25,1918.492,1637.96,1924.262,1637.339Z" transform="translate(-621.422 -548.576)" fill="#ea8888"/>
    <g id="Group_981" data-name="Group 981" transform="translate(1278.981 1104.669)">
      <path id="Path_4506" data-name="Path 4506" d="M1900.423,1688.4h-2.614c-.875-.138-1.521-.392-2.419-.509a2.423,2.423,0,0,0-2.116.509.341.341,0,0,0-.024.026h-11.1c-.28-.4-.011-1.323.252-2a1.578,1.578,0,0,1,1.039-.95,11.972,11.972,0,0,0,5.623-2.568c1.2-1.081,5.774-3.973,5.774-3.973l.024-.005c.1,0,.579.149,2.662,1.907,1.077.907,2.912-1.281,2.912-1.281a2.6,2.6,0,0,1,.6.815,2.755,2.755,0,0,1,.239,1.7,11.051,11.051,0,0,0,.795,4.116c.259.762.477,1.3.477,1.3S1902.671,1688.123,1900.423,1688.4Z" transform="translate(-1882.03 -1678.931)" fill="#0b0754"/>
    </g>
    <g id="Group_982" data-name="Group 982" transform="translate(1291.788 1104.669)">
      <path id="Path_4507" data-name="Path 4507" d="M1920.738,1680.372a8.28,8.28,0,0,1-2.814,1.419c-1.179.155-3.385-2.855-3.385-2.855l.024-.005c.1,0,.579.149,2.662,1.907,1.077.907,2.912-1.281,2.912-1.281A2.6,2.6,0,0,1,1920.738,1680.372Z" transform="translate(-1914.539 -1678.931)" fill="#fff"/>
    </g>
    <g id="Group_983" data-name="Group 983" transform="translate(1278.981 1111.931)">
      <path id="Path_4508" data-name="Path 4508" d="M1900.423,1699.576h-2.614c-.875-.138-1.521-.392-2.419-.509a2.423,2.423,0,0,0-2.116.509.341.341,0,0,0-.024.026h-11.1c-.28-.4-.011-1.323.252-2,.337-.3.432,1.3.618,1.557s9.056.093,9.568-.279a5.355,5.355,0,0,1,4.191-.512c1.864.445,4.612-.7,5.292-1,.259.762.477,1.3.477,1.3S1902.671,1699.295,1900.423,1699.576Z" transform="translate(-1882.03 -1697.365)" fill="#fff"/>
    </g>
    <g id="Group_984" data-name="Group 984" transform="translate(1292.927 1104.669)">
      <path id="Path_4509" data-name="Path 4509" d="M1935.822,1688.4h-2.613c-.875-.138-1.522-.392-2.42-.509a2.422,2.422,0,0,0-2.116.509l-.024.026h-11.1c-.279-.4-.011-1.323.251-2a1.578,1.578,0,0,1,1.04-.95,11.969,11.969,0,0,0,5.623-2.568c1.2-1.081,5.774-3.973,5.774-3.973l.024-.005c.1,0,.579.149,2.661,1.907,1.077.907,2.911-1.281,2.911-1.281a2.6,2.6,0,0,1,.6.815,2.756,2.756,0,0,1,.239,1.7,11.031,11.031,0,0,0,.8,4.116c.258.762.477,1.3.477,1.3S1938.07,1688.123,1935.822,1688.4Z" transform="translate(-1917.43 -1678.931)" fill="#0b0754"/>
    </g>
    <g id="Group_985" data-name="Group 985" transform="translate(1305.733 1104.669)">
      <path id="Path_4510" data-name="Path 4510" d="M1956.137,1680.372a8.281,8.281,0,0,1-2.814,1.419c-1.179.155-3.384-2.855-3.384-2.855l.024-.005c.1,0,.579.149,2.661,1.907,1.077.907,2.911-1.281,2.911-1.281A2.6,2.6,0,0,1,1956.137,1680.372Z" transform="translate(-1949.939 -1678.931)" fill="#fff"/>
    </g>
    <g id="Group_986" data-name="Group 986" transform="translate(1292.927 1111.931)">
      <path id="Path_4511" data-name="Path 4511" d="M1935.822,1699.576h-2.613c-.875-.138-1.522-.392-2.42-.509a2.422,2.422,0,0,0-2.116.509l-.024.026h-11.1c-.279-.4-.011-1.323.251-2,.337-.3.433,1.3.619,1.557s9.056.093,9.568-.279a5.354,5.354,0,0,1,4.19-.512c1.865.445,4.612-.7,5.292-1,.258.762.477,1.3.477,1.3S1938.07,1699.295,1935.822,1699.576Z" transform="translate(-1917.43 -1697.365)" fill="#fff"/>
    </g>
    <path id="Path_4512" data-name="Path 4512" d="M1953.582,1355.56c-2.77-.925-6.327-3.387-10.6-8.905-11.3-14.612-.96-31.782.427-32.1s4,11.109,4,11.109C1949.216,1337.483,1953.313,1350.174,1953.582,1355.56Z" transform="translate(-636.824 -353.422)" fill="#ed6966"/>
    <path id="Path_4513" data-name="Path 4513" d="M1871.934,1256.877s-7.741,3.9-10.32,19.617c0,0,2.536,3.475,6.107,4.5a7.17,7.17,0,0,0,1.589.272C1873.7,1281.5,1871.934,1256.877,1871.934,1256.877Z" transform="translate(-590.676 -318.471)" fill="#fa7269"/>
    <path id="Path_4514" data-name="Path 4514" d="M1813.12,1278.7s2.393-3.682,2.978-3.477c.835.293-2.169,4.964-2.169,4.964s2.226-3.491,2.573-3.228c.792.6-.469,2.792-1.719,4.473,0,0,2.238-2.05,2.311-1.681.256,1.293-2.457,4.426-2.457,4.426l-1.516-3.463Z" transform="translate(-561.285 -329.584)" fill="#ea8888"/>
    <path id="Path_4515" data-name="Path 4515" d="M1808.565,1279.715c.115-.45.7-9.242.95-8.407s.845,5.443.845,5.443Z" transform="translate(-558.525 -327.184)" fill="#ea8888"/>
    <path id="Path_4516" data-name="Path 4516" d="M2005.743,1427.09s4.5,2.989,5.183,4.248,2.29,5.9,2.29,5.9-1.146.171-2.29-1.833-4.925-1.832-6.184-2.92-2.725-4.276-2.725-4.276Z" transform="translate(-675.768 -421.631)" fill="#fa958e"/>
    <path id="Path_4517" data-name="Path 4517" d="M2003.257,1432.43s.747,3.519,1.664,4.55,2.176,2.749,2.691,2.29-.573-4.294-.573-4.294Z" transform="translate(-676.52 -424.867)" fill="#fa958e"/>
    <path id="Path_4518" data-name="Path 4518" d="M2023.033,1438.893c.115.171,4.066,4.37,4.066,4.37s-1.432.649-1.832,0S2023.033,1438.893,2023.033,1438.893Z" transform="translate(-688.505 -428.784)" fill="#fa958e"/>
  </g>
</svg>
