<svg xmlns="http://www.w3.org/2000/svg" width="1920" height="1875.454" viewBox="0 0 1920 1875.454">
  <g id="Group_927" data-name="Group 927" opacity="0.07">
    <rect id="Rectangle_209" data-name="Rectangle 209" width="1920" height="1875" fill="#fff"/>
    <g id="Group_926" data-name="Group 926" transform="translate(0 0.009)">
      <g id="Group_922" data-name="Group 922">
        <g id="Group_920" data-name="Group 920">
          <path id="Path_4298" data-name="Path 4298" d="M1036.636,0H630.975l309.5,591.814h96.164Z" transform="translate(883.364 -0.004)" fill="#fff" style="mix-blend-mode: multiply;isolation: isolate"/>
          <path id="Path_4299" data-name="Path 4299" d="M419.9,424.809,254.261,108.115H585.51L751.136,424.809Z" transform="translate(355.965 145.332)" fill="#fff" style="mix-blend-mode: multiply;isolation: isolate"/>
          <path id="Path_4300" data-name="Path 4300" d="M212.864,0H0V278.049H67.465Z" transform="translate(0 -0.004)" fill="#fff" style="mix-blend-mode: multiply;isolation: isolate"/>
          <path id="Path_4301" data-name="Path 4301" d="M453.975,0H0V294.787L61.926,413.2H670.052Z" transform="translate(0 -0.004)" fill="#f7f7f7" style="mix-blend-mode: multiply;isolation: isolate"/>
          <path id="Path_4302" data-name="Path 4302" d="M471.679,0H264.439L368.067,198.142Z" transform="translate(370.214 -0.004)" fill="#fff" style="mix-blend-mode: multiply;isolation: isolate"/>
          <path id="Path_4303" data-name="Path 4303" d="M381.675,3.092h539.41l-269.7,515.715H111.986Z" transform="translate(156.781 4.148)" fill="#fff" style="mix-blend-mode: multiply;isolation: isolate"/>
          <path id="Path_4304" data-name="Path 4304" d="M1036.636,0H630.975l309.5,591.814h96.164Z" transform="translate(883.364 -0.004)" fill="#fff" style="mix-blend-mode: multiply;isolation: isolate"/>
          <path id="Path_4305" data-name="Path 4305" d="M940.526,402.011l-240.9,460.61h240.9Z" transform="translate(979.473 540.421)" fill="#a7a7a7" style="mix-blend-mode: multiply;isolation: isolate"/>
          <path id="Path_4306" data-name="Path 4306" d="M1159.136,302.63,1000.872,0H654.918L496.673,302.622,827.887,935.984Z" transform="translate(695.342 -0.004)" fill="#f7f7f7" style="mix-blend-mode: multiply;isolation: isolate"/>
          <path id="Path_4307" data-name="Path 4307" d="M1013.575,144.819H647.446L978.679,778.172h34.9Z" transform="translate(906.424 194.674)" fill="#fcfcfc" style="mix-blend-mode: multiply;isolation: isolate"/>
        </g>
        <g id="Group_921" data-name="Group 921" transform="translate(572.899)">
          <path id="Path_4308" data-name="Path 4308" d="M1026.721,620.116l-158.229-302.6L638.057,758.1,868.492,1198.7l158.229-302.628Z" transform="translate(320.38 426.83)" fill="#dedede" style="mix-blend-mode: multiply;isolation: isolate"/>
          <path id="Path_4309" data-name="Path 4309" d="M1065.738,0H604.922L446.051,303.775H906.865Z" transform="translate(51.572 -0.004)" fill="#fff" style="mix-blend-mode: multiply;isolation: isolate"/>
          <path id="Path_4310" data-name="Path 4310" d="M865.721,173.346l230.435,440.572H635.321L404.9,173.346Z" transform="translate(-6.033 233.022)" fill="#fff" style="mix-blend-mode: multiply;isolation: isolate"/>
          <path id="Path_4311" data-name="Path 4311" d="M1026.721,441.746V165.794L940.018,0H796.93L638.057,303.775,868.492,744.348Z" transform="translate(320.38 -0.004)" fill="#fff" style="mix-blend-mode: multiply;isolation: isolate"/>
          <path id="Path_4312" data-name="Path 4312" d="M1026.721,0H796.93L638.057,303.775h388.664Z" transform="translate(320.38 -0.004)" fill="#fff" style="mix-blend-mode: multiply;isolation: isolate"/>
          <path id="Path_4313" data-name="Path 4313" d="M1026.721,129.581H638.057L868.492,570.154h158.229Z" transform="translate(320.38 174.189)" fill="#fff" style="mix-blend-mode: multiply;isolation: isolate"/>
          <path id="Path_4314" data-name="Path 4314" d="M542.058,570.154l230.4-440.573L1002.89,570.154,772.455,1010.737Z" transform="translate(185.981 174.189)" fill="#fff" style="mix-blend-mode: multiply;isolation: isolate"/>
          <path id="Path_4315" data-name="Path 4315" d="M1161.12,129.581H772.455l-230.4,440.573H1002.89l158.229-302.6Z" transform="translate(185.981 174.189)" fill="#d3d3d3" style="mix-blend-mode: multiply;isolation: isolate"/>
          <path id="Path_4316" data-name="Path 4316" d="M1161.12,620.116l-158.229-302.6H542.058L772.455,758.1H1161.12Z" transform="translate(185.981 426.83)" fill="#ececec" style="mix-blend-mode: multiply;isolation: isolate"/>
          <path id="Path_4317" data-name="Path 4317" d="M892.3,188.435l-158.229,302.6L892.3,793.639Z" transform="translate(454.801 253.307)" fill="#fff" style="mix-blend-mode: multiply;isolation: isolate"/>
          <path id="Path_4318" data-name="Path 4318" d="M474.291,664.977,704.691,224.4,935.124,664.977l-230.433,440.59Z" transform="translate(91.108 301.662)" fill="#fff" style="mix-blend-mode: multiply;isolation: isolate"/>
          <path id="Path_4319" data-name="Path 4319" d="M642.825,352.058H305.186L474.007,29.242H811.662Z" transform="translate(-145.638 39.302)" fill="#a7a7a7" style="mix-blend-mode: multiply;isolation: isolate"/>
          <path id="Path_4320" data-name="Path 4320" d="M913.319,91.476,866.547,0H499.272L452.5,91.476,682.919,542.045Z" transform="translate(60.605 -0.004)" fill="#fcfcfc" style="mix-blend-mode: multiply;isolation: isolate"/>
          <path id="Path_4321" data-name="Path 4321" d="M825.106,376.378l-43.038,82.289h43.038Z" transform="translate(521.995 505.962)" fill="#e1e1e1" style="mix-blend-mode: multiply;isolation: isolate"/>
          <path id="Path_4322" data-name="Path 4322" d="M825.106,411.479H782.067l43.038,82.3Z" transform="translate(521.995 553.15)" fill="#fff" style="mix-blend-mode: multiply;isolation: isolate"/>
          <path id="Path_4323" data-name="Path 4323" d="M825.106,188.442l-43.038,82.3h43.038Z" transform="translate(521.995 253.317)" fill="#cbcbcb" style="mix-blend-mode: multiply;isolation: isolate"/>
          <path id="Path_4324" data-name="Path 4324" d="M825.106,223.548H782.067l43.038,82.289Z" transform="translate(521.995 300.51)" fill="#e4e4e4" style="mix-blend-mode: multiply;isolation: isolate"/>
          <path id="Path_4325" data-name="Path 4325" d="M892.3,223.548H849.262L734.071,443.834H892.3Z" transform="translate(454.801 300.51)" fill="#dedede" style="mix-blend-mode: multiply;isolation: isolate"/>
          <path id="Path_4326" data-name="Path 4326" d="M892.3,317.514H734.071L849.262,537.8H892.3Z" transform="translate(454.801 426.83)" fill="#fcfcfc" style="mix-blend-mode: multiply;isolation: isolate"/>
          <path id="Path_4327" data-name="Path 4327" d="M1026.721,0H796.93L638.057,303.775h388.664Z" transform="translate(320.38 -0.004)" fill="#fff" style="mix-blend-mode: multiply;isolation: isolate"/>
          <path id="Path_4328" data-name="Path 4328" d="M990.576,184.287h-326.7L894.309,624.859h96.267Z" transform="translate(356.524 247.73)" fill="#fff" style="mix-blend-mode: multiply;isolation: isolate"/>
          <path id="Path_4329" data-name="Path 4329" d="M980.428,0h-309.3L851.21,344.382H980.428Z" transform="translate(366.673 -0.004)" fill="#c5c5c5" style="mix-blend-mode: multiply;isolation: isolate"/>
          <path id="Path_4330" data-name="Path 4330" d="M959.515,505.45H801.286L686.06,725.752H916.477l43.038-82.315Z" transform="translate(387.585 679.476)" fill="#a2a2a2" style="mix-blend-mode: multiply;isolation: isolate"/>
          <path id="Path_4331" data-name="Path 4331" d="M959.515,681.739l-43.038-82.316H686.06l115.226,220.3H959.515Z" transform="translate(387.585 805.805)" fill="#b8b8b8" style="mix-blend-mode: multiply;isolation: isolate"/>
          <path id="Path_4332" data-name="Path 4332" d="M825.106,564.31l-43.038,82.315,43.038,82.316Z" transform="translate(521.995 758.603)" fill="#f1f1f1" style="mix-blend-mode: multiply;isolation: isolate"/>
          <path id="Path_4333" data-name="Path 4333" d="M959.515,317.514H801.286L686.06,537.8H916.477l43.038-82.305Z" transform="translate(387.585 426.83)" fill="#d3d3d3" style="mix-blend-mode: multiply;isolation: isolate"/>
          <path id="Path_4334" data-name="Path 4334" d="M959.515,493.787l-43.038-82.308H686.06l115.226,220.3H959.515Z" transform="translate(387.585 553.15)" fill="#f1f1f1" style="mix-blend-mode: multiply;isolation: isolate"/>
          <path id="Path_4335" data-name="Path 4335" d="M825.106,376.371l-43.038,82.305,43.038,82.308Z" transform="translate(521.995 505.953)" fill="#fff" style="mix-blend-mode: multiply;isolation: isolate"/>
          <path id="Path_4336" data-name="Path 4336" d="M825.106,564.31l-43.038,82.315h43.038Z" transform="translate(521.995 758.603)" fill="#a5a5a5" style="mix-blend-mode: multiply;isolation: isolate"/>
          <path id="Path_4337" data-name="Path 4337" d="M825.106,599.423H782.067l43.038,82.316Z" transform="translate(521.995 805.805)" fill="silver" style="mix-blend-mode: multiply;isolation: isolate"/>
          <path id="Path_4338" data-name="Path 4338" d="M825.106,376.371l-43.038,82.305h43.038Z" transform="translate(521.995 505.953)" fill="#e1e1e1" style="mix-blend-mode: multiply;isolation: isolate"/>
          <path id="Path_4339" data-name="Path 4339" d="M825.106,411.479H782.067l43.038,82.308Z" transform="translate(521.995 553.15)" fill="#fff" style="mix-blend-mode: multiply;isolation: isolate"/>
          <path id="Path_4340" data-name="Path 4340" d="M778.135,679.188H547.7L662.909,458.894H893.325Z" transform="translate(193.879 616.889)" fill="#d9d9d9" style="mix-blend-mode: multiply;isolation: isolate"/>
          <path id="Path_4341" data-name="Path 4341" d="M868.492,505.45l115.191,220.3H753.266L638.057,505.45Z" transform="translate(320.38 679.476)" fill="#f7f7f7" style="mix-blend-mode: multiply;isolation: isolate"/>
          <path id="Path_4342" data-name="Path 4342" d="M892.3,493.787l-43.038-82.308-115.191,220.3,115.191,220.3L892.3,769.764Z" transform="translate(454.801 553.15)" fill="#fff" style="mix-blend-mode: multiply;isolation: isolate"/>
          <path id="Path_4343" data-name="Path 4343" d="M892.3,411.479H849.262l-115.191,220.3H892.3Z" transform="translate(454.801 553.15)" fill="#cecece" style="mix-blend-mode: multiply;isolation: isolate"/>
          <path id="Path_4344" data-name="Path 4344" d="M881.424,600.429H741.84l115.193,220.3h24.392Z" transform="translate(465.676 807.157)" fill="#ececec" style="mix-blend-mode: multiply;isolation: isolate"/>
          <path id="Path_4345" data-name="Path 4345" d="M699.524,110.622,641.676,0h-345.1L238.708,110.622,469.124,551.194Z" transform="translate(-238.708 -0.004)" fill="#fff" style="mix-blend-mode: multiply;isolation: isolate"/>
        </g>
      </g>
      <g id="Group_925" data-name="Group 925" transform="translate(0 215.122)">
        <g id="Group_923" data-name="Group 923" transform="translate(0 229.325)">
          <path id="Path_4346" data-name="Path 4346" d="M0,1146.137H405.677L96.163,542.519H0Z" transform="translate(0 284.861)" fill="#fff" style="mix-blend-mode: multiply;isolation: isolate"/>
          <path id="Path_4347" data-name="Path 4347" d="M669.947,551.952,835.573,874.946H504.34L338.715,551.952Z" transform="translate(474.201 297.542)" fill="#fff" style="mix-blend-mode: multiply;isolation: isolate"/>
          <path id="Path_4348" data-name="Path 4348" d="M711.313,962.622H924.161V679.03H856.713Z" transform="translate(995.839 468.376)" fill="#fff" style="mix-blend-mode: multiply;isolation: isolate"/>
          <path id="Path_4349" data-name="Path 4349" d="M736.9,1041.662h453.959V740.994l-61.927-120.76H520.818Z" transform="translate(729.146 389.335)" fill="#f7f7f7" style="mix-blend-mode: multiply;isolation: isolate"/>
          <path id="Path_4350" data-name="Path 4350" d="M449.219,915.891H656.458l-103.629-202.1Z" transform="translate(628.906 515.106)" fill="#fff" style="mix-blend-mode: multiply;isolation: isolate"/>
          <path id="Path_4351" data-name="Path 4351" d="M890.289,1098.47H350.9L620.6,572.477h539.374Z" transform="translate(491.256 325.135)" fill="#fff" style="mix-blend-mode: multiply;isolation: isolate"/>
          <path id="Path_4352" data-name="Path 4352" d="M0,1146.137H405.677L96.163,542.519H0Z" transform="translate(0 284.861)" fill="#fff" style="mix-blend-mode: multiply;isolation: isolate"/>
          <path id="Path_4353" data-name="Path 4353" d="M0,659.373,240.9,189.589H0Z" transform="translate(0 -189.589)" fill="#a7a7a7" style="mix-blend-mode: multiply;isolation: isolate"/>
          <path id="Path_4354" data-name="Path 4354" d="M27.308,1038.761l158.264,308.655H531.509l158.264-308.655L358.557,392.792Z" transform="translate(38.231 83.581)" fill="#f7f7f7" style="mix-blend-mode: multiply;isolation: isolate"/>
          <path id="Path_4355" data-name="Path 4355" d="M0,1022.72H366.145L34.913,376.751H0Z" transform="translate(0 62.016)" fill="#fcfcfc" style="mix-blend-mode: multiply;isolation: isolate"/>
        </g>
        <g id="Group_924" data-name="Group 924">
          <path id="Path_4356" data-name="Path 4356" d="M0,682.9,158.246,991.53,388.663,542.181,158.246,92.8,0,401.445Z" transform="translate(0 -90.381)" fill="#dedede" style="mix-blend-mode: multiply;isolation: isolate"/>
          <path id="Path_4357" data-name="Path 4357" d="M95.747,977.665H556.579L715.452,667.84H254.618Z" transform="translate(134.045 682.657)" fill="#fff" style="mix-blend-mode: multiply;isolation: isolate"/>
          <path id="Path_4358" data-name="Path 4358" d="M337.5,880.877,107.082,431.528H567.915L798.331,880.877Z" transform="translate(149.915 364.98)" fill="#fff" style="mix-blend-mode: multiply;isolation: isolate"/>
          <path id="Path_4359" data-name="Path 4359" d="M0,784.794v281.437l86.7,169.107H229.792L388.663,925.513,158.246,476.164Z" transform="translate(0 424.984)" fill="#fff" style="mix-blend-mode: multiply;isolation: isolate"/>
          <path id="Path_4360" data-name="Path 4360" d="M0,977.665H229.792L388.663,667.84H0Z" transform="translate(0 682.657)" fill="#fff" style="mix-blend-mode: multiply;isolation: isolate"/>
          <path id="Path_4361" data-name="Path 4361" d="M0,925.513H388.663L158.246,476.164H0Z" transform="translate(0 424.984)" fill="#fff" style="mix-blend-mode: multiply;isolation: isolate"/>
          <path id="Path_4362" data-name="Path 4362" d="M526.77,733.837,296.353,1183.186,65.936,733.837,296.353,284.488Z" transform="translate(92.31 167.311)" fill="#fff" style="mix-blend-mode: multiply;isolation: isolate"/>
          <path id="Path_4363" data-name="Path 4363" d="M0,925.513H388.663L619.08,476.164H158.246L0,784.794Z" transform="translate(0 424.984)" fill="#d3d3d3" style="mix-blend-mode: multiply;isolation: isolate"/>
          <path id="Path_4364" data-name="Path 4364" d="M0,425.207l158.246,308.63H619.08L388.663,284.488H0Z" transform="translate(0 167.311)" fill="#ececec" style="mix-blend-mode: multiply;isolation: isolate"/>
          <path id="Path_4365" data-name="Path 4365" d="M0,961.774l158.246-308.63L0,344.514Z" transform="translate(0 248.005)" fill="#fff" style="mix-blend-mode: multiply;isolation: isolate"/>
          <path id="Path_4366" data-name="Path 4366" d="M594.536,637.129l-230.4,449.342L133.7,637.129,364.136,187.773Z" transform="translate(187.183 37.296)" fill="#fff" style="mix-blend-mode: multiply;isolation: isolate"/>
          <path id="Path_4367" data-name="Path 4367" d="M452.626,629.732H790.264L621.446,958.976H283.789Z" transform="translate(397.305 631.429)" fill="#a7a7a7" style="mix-blend-mode: multiply;isolation: isolate"/>
          <path id="Path_4368" data-name="Path 4368" d="M155.5,1023.718l46.771,93.3H569.543l46.771-93.3L385.9,564.177Z" transform="translate(217.697 543.301)" fill="#fcfcfc" style="mix-blend-mode: multiply;isolation: isolate"/>
          <path id="Path_4369" data-name="Path 4369" d="M0,464.254l43.056-83.926H0Z" transform="translate(0 296.15)" fill="#e1e1e1" style="mix-blend-mode: multiply;isolation: isolate"/>
          <path id="Path_4370" data-name="Path 4370" d="M0,428.464H43.056L0,344.521Z" transform="translate(0 248.014)" fill="#fff" style="mix-blend-mode: multiply;isolation: isolate"/>
          <path id="Path_4371" data-name="Path 4371" d="M0,655.942,43.056,572H0Z" transform="translate(0 553.818)" fill="#cbcbcb" style="mix-blend-mode: multiply;isolation: isolate"/>
          <path id="Path_4372" data-name="Path 4372" d="M0,620.126H43.056L0,536.2Z" transform="translate(0 505.692)" fill="#e4e4e4" style="mix-blend-mode: multiply;isolation: isolate"/>
          <path id="Path_4373" data-name="Path 4373" d="M0,700.834H43.056l115.191-224.67H0Z" transform="translate(0 424.984)" fill="#dedede" style="mix-blend-mode: multiply;isolation: isolate"/>
          <path id="Path_4374" data-name="Path 4374" d="M0,605H158.246L43.056,380.328H0Z" transform="translate(0 296.15)" fill="#fcfcfc" style="mix-blend-mode: multiply;isolation: isolate"/>
          <path id="Path_4375" data-name="Path 4375" d="M0,977.665H229.792L388.663,667.84H0Z" transform="translate(0 682.657)" fill="#fff" style="mix-blend-mode: multiply;isolation: isolate"/>
          <path id="Path_4376" data-name="Path 4376" d="M0,869.715H326.719L96.285,420.366H0Z" transform="translate(0 349.974)" fill="#fff" style="mix-blend-mode: multiply;isolation: isolate"/>
          <path id="Path_4377" data-name="Path 4377" d="M0,1001.413H309.324l-180.1-351.238H0Z" transform="translate(0 658.91)" fill="#c5c5c5" style="mix-blend-mode: multiply;isolation: isolate"/>
          <path id="Path_4378" data-name="Path 4378" d="M0,413.342H158.246l115.226-224.7H43.056L0,272.6Z" transform="translate(0 38.458)" fill="#a2a2a2" style="mix-blend-mode: multiply;isolation: isolate"/>
          <path id="Path_4379" data-name="Path 4379" d="M0,233.525l43.056,83.951H273.472L158.246,92.8H0Z" transform="translate(0 -90.381)" fill="#b8b8b8" style="mix-blend-mode: multiply;isolation: isolate"/>
          <path id="Path_4380" data-name="Path 4380" d="M0,320.739l43.056-83.96L0,152.827Z" transform="translate(0 -9.683)" fill="#f1f1f1" style="mix-blend-mode: multiply;isolation: isolate"/>
          <path id="Path_4381" data-name="Path 4381" d="M0,605H158.246l115.226-224.67H43.056L0,464.27Z" transform="translate(0 296.15)" fill="#d3d3d3" style="mix-blend-mode: multiply;isolation: isolate"/>
          <path id="Path_4382" data-name="Path 4382" d="M0,425.207l43.056,83.96H273.472L158.246,284.488H0Z" transform="translate(0 167.311)" fill="#f1f1f1" style="mix-blend-mode: multiply;isolation: isolate"/>
          <path id="Path_4383" data-name="Path 4383" d="M0,512.416l43.056-83.942L0,344.514Z" transform="translate(0 248.005)" fill="#fff" style="mix-blend-mode: multiply;isolation: isolate"/>
          <path id="Path_4384" data-name="Path 4384" d="M0,272.6l43.056-83.96H0Z" transform="translate(0 38.458)" fill="#a5a5a5" style="mix-blend-mode: multiply;isolation: isolate"/>
          <path id="Path_4385" data-name="Path 4385" d="M0,236.779H43.056L0,152.827Z" transform="translate(0 -9.683)" fill="silver" style="mix-blend-mode: multiply;isolation: isolate"/>
          <path id="Path_4386" data-name="Path 4386" d="M0,464.27l43.056-83.942H0Z" transform="translate(0 296.15)" fill="#e1e1e1" style="mix-blend-mode: multiply;isolation: isolate"/>
          <path id="Path_4387" data-name="Path 4387" d="M0,428.474H43.056L0,344.514Z" transform="translate(0 248.005)" fill="#fff" style="mix-blend-mode: multiply;isolation: isolate"/>
          <path id="Path_4388" data-name="Path 4388" d="M223.489,236.127H453.923L338.714,460.806H108.3Z" transform="translate(151.616 102.298)" fill="#d9d9d9" style="mix-blend-mode: multiply;isolation: isolate"/>
          <path id="Path_4389" data-name="Path 4389" d="M133.131,413.342,17.94,188.638H248.356l115.191,224.7Z" transform="translate(25.116 38.458)" fill="#f7f7f7" style="mix-blend-mode: multiply;isolation: isolate"/>
          <path id="Path_4390" data-name="Path 4390" d="M0,554.061l43.056,83.96L158.246,413.342,43.056,188.638,0,272.6Z" transform="translate(0 38.458)" fill="#fff" style="mix-blend-mode: multiply;isolation: isolate"/>
          <path id="Path_4391" data-name="Path 4391" d="M0,509.167H43.056L158.246,284.488H0Z" transform="translate(0 167.311)" fill="#cecece" style="mix-blend-mode: multiply;isolation: isolate"/>
          <path id="Path_4392" data-name="Path 4392" d="M0,316.463H139.6L24.41,91.767H0Z" transform="translate(0 -91.767)" fill="#ececec" style="mix-blend-mode: multiply;isolation: isolate"/>
          <path id="Path_4393" data-name="Path 4393" d="M369.293,1009.536l57.847,112.839H772.245l57.846-112.839-230.4-449.342Z" transform="translate(517.009 537.948)" fill="#fff" style="mix-blend-mode: multiply;isolation: isolate"/>
        </g>
      </g>
    </g>
    <path id="Path_4404" data-name="Path 4404" d="M0,0H1920V1875H0Z" fill="#d265ff" opacity="0.7" style="mix-blend-mode: overlay;isolation: isolate"/>
  </g>
</svg>
