<svg xmlns="http://www.w3.org/2000/svg" width="67" height="67" viewBox="0 0 67 67">
  <g id="Group_553" data-name="Group 553" transform="translate(-618 -788)">
    <g id="Ellipse_56" data-name="Ellipse 56" transform="translate(618 788)" fill="#fff" stroke="#707070" stroke-width="1">
      <circle cx="33.5" cy="33.5" r="33.5" stroke="none"/>
      <circle cx="33.5" cy="33.5" r="33" fill="none"/>
    </g>
    <g id="Group_482" data-name="Group 482" transform="translate(137.967 131.408)">
      <g id="Group_480" data-name="Group 480">
        <g id="Group_479" data-name="Group 479">
          <g id="Group_478" data-name="Group 478">
            <path id="Path_4295" data-name="Path 4295" d="M528.259,692.291v10.681a.478.478,0,0,1-.478.478h-5.513a.478.478,0,0,1-.478-.478v-9.933c0-2.614-.934-4.4-3.276-4.4a3.539,3.539,0,0,0-3.319,2.366,4.433,4.433,0,0,0-.214,1.576v10.389a.478.478,0,0,1-.478.478h-5.511a.476.476,0,0,1-.478-.478c.012-2.645.068-15.478.011-18.495a.475.475,0,0,1,.478-.483h5.5a.477.477,0,0,1,.478.477v2.28c-.013.021-.032.043-.043.063h.043v-.063a6.422,6.422,0,0,1,5.83-3.214c4.256,0,7.447,2.781,7.447,8.755ZM498.945,703.45h5.512a.478.478,0,0,0,.478-.478v-18.5a.477.477,0,0,0-.478-.477h-5.512a.477.477,0,0,0-.477.477v18.5A.478.478,0,0,0,498.945,703.45Z" fill="#007ab9"/>
          </g>
        </g>
      </g>
      <g id="Group_481" data-name="Group 481">
        <path id="Path_4296" data-name="Path 4296" d="M504.97,678.055a3.462,3.462,0,1,1-3.462-3.463A3.463,3.463,0,0,1,504.97,678.055Z" fill="#007ab9"/>
      </g>
    </g>
  </g>
</svg>
