<svg xmlns="http://www.w3.org/2000/svg" width="109" height="109" viewBox="0 0 109 109">
  <g id="Group_556" data-name="Group 556" transform="translate(-174 -259)">
    <g id="Ellipse_83" data-name="Ellipse 83" transform="translate(174 259)" fill="#fafafa" stroke="#dfdfdf" stroke-width="1">
      <circle cx="54.5" cy="54.5" r="54.5" stroke="none"/>
      <circle cx="54.5" cy="54.5" r="54" fill="none"/>
    </g>
    <path id="Exclusion_1" data-name="Exclusion 1" d="M42.63,78.008v0A39.208,39.208,0,0,0,77.991,40.968a39.01,39.01,0,0,1-35.36,37.04Zm-7.234,0a38.7,38.7,0,0,1-4.242-.627,39.527,39.527,0,0,0,4.242.625Zm3.617-10.781A28.052,28.052,0,0,1,15.6,54.64a7.246,7.246,0,0,1,2.61-5.163A20.824,20.824,0,0,1,24.424,45.7a41.69,41.69,0,0,1,14.59-3.1,41.69,41.69,0,0,1,14.575,3.1,20.884,20.884,0,0,1,6.223,3.774,7.242,7.242,0,0,1,2.616,5.163A28.051,28.051,0,0,1,39.013,67.226ZM.287,43.937a39.593,39.593,0,0,1-.294-4.4A39.818,39.818,0,0,0,.287,43.937Zm77.581-8.482A39.2,39.2,0,0,0,40.894.036,39.043,39.043,0,0,1,77.871,35.455ZM.161,35.419h0a38.859,38.859,0,0,1,.906-5.491A39.5,39.5,0,0,0,.161,35.419Zm38.852-.247a11.7,11.7,0,1,1,8.282-3.43A11.623,11.623,0,0,1,39.013,35.172ZM31.872.642A39.107,39.107,0,0,1,38.317,0,39.29,39.29,0,0,0,31.872.642Z" transform="translate(190 275)" fill="#dfdfdf"/>
  </g>
</svg>
