<svg xmlns="http://www.w3.org/2000/svg" width="282" height="260" viewBox="0 0 282 260">
  <g id="Group_989" data-name="Group 989" transform="translate(-627 -496)">
    <rect id="Rectangle_290" data-name="Rectangle 290" width="71" height="70" rx="4" transform="translate(627 496)" fill="#f6f1f1"/>
    <rect id="Rectangle_291" data-name="Rectangle 291" width="200" height="14" rx="7" transform="translate(709 535)" fill="#f6f1f1"/>
    <rect id="Rectangle_296" data-name="Rectangle 296" width="200" height="14" rx="7" transform="translate(709 582)" fill="#f6f1f1"/>
    <rect id="Rectangle_293" data-name="Rectangle 293" width="71" height="14" rx="7" transform="translate(627 582)" fill="#f6f1f1"/>
    <rect id="Rectangle_298" data-name="Rectangle 298" width="282" height="14" rx="7" transform="translate(627 626)" fill="#f6f1f1"/>
    <rect id="Rectangle_300" data-name="Rectangle 300" width="282" height="14" rx="7" transform="translate(627 660)" fill="#f6f1f1"/>
    <rect id="Rectangle_302" data-name="Rectangle 302" width="78" height="14" rx="7" transform="translate(627 725)" fill="#f6f1f1"/>
    <rect id="Rectangle_292" data-name="Rectangle 292" width="200" height="14" rx="7" transform="translate(709 552)" fill="#f6f1f1"/>
    <rect id="Rectangle_295" data-name="Rectangle 295" width="200" height="14" rx="7" transform="translate(709 599)" fill="#f6f1f1"/>
    <rect id="Rectangle_294" data-name="Rectangle 294" width="71" height="14" rx="7" transform="translate(627 599)" fill="#f6f1f1"/>
    <rect id="Rectangle_297" data-name="Rectangle 297" width="282" height="14" rx="7" transform="translate(627 643)" fill="#f6f1f1"/>
    <rect id="Rectangle_299" data-name="Rectangle 299" width="282" height="14" rx="7" transform="translate(627 677)" fill="#f6f1f1"/>
    <rect id="Rectangle_301" data-name="Rectangle 301" width="78" height="14" rx="7" transform="translate(627 742)" fill="#f6f1f1"/>
  </g>
</svg>
