<svg xmlns="http://www.w3.org/2000/svg" viewBox="0 0 282 195" width="282" height="195">
	<style>
		tspan { white-space:pre }
		.shp0 { fill: #f6f1f1 } 
	</style>
	<g id="Group_989">
		<path id="Rectangle_290" class="shp0" d="M4 0L67 0C69.21 0 71 1.79 71 4L71 66C71 68.21 69.21 70 67 70L4 70C1.79 70 0 68.21 0 66L0 4C0 1.79 1.79 0 4 0Z" />
		<path id="Rectangle_291" class="shp0" d="M89 39L275 39C278.87 39 282 42.13 282 46L282 46C282 49.87 278.87 53 275 53L89 53C85.13 53 82 49.87 82 46L82 46C82 42.13 85.13 39 89 39Z" />
		<path id="Rectangle_296" class="shp0" d="M89 86L275 86C278.87 86 282 89.13 282 93L282 93C282 96.87 278.87 100 275 100L89 100C85.13 100 82 96.87 82 93L82 93C82 89.13 85.13 86 89 86Z" />
		<path id="Rectangle_293" class="shp0" d="M7 86L64 86C67.87 86 71 89.13 71 93L71 93C71 96.87 67.87 100 64 100L7 100C3.13 100 0 96.87 0 93L0 93C0 89.13 3.13 86 7 86Z" />
		<path id="Rectangle_298" class="shp0" d="M7 130L275 130C278.87 130 282 133.13 282 137L282 137C282 140.87 278.87 144 275 144L7 144C3.13 144 0 140.87 0 137L0 137C0 133.13 3.13 130 7 130Z" />
		<path id="Rectangle_300" class="shp0" d="M7 164L275 164C278.87 164 282 167.13 282 171L282 171C282 174.87 278.87 178 275 178L7 178C3.13 178 0 174.87 0 171L0 171C0 167.13 3.13 164 7 164Z" />
		<path id="Rectangle_292" class="shp0" d="M89 56L275 56C278.87 56 282 59.13 282 63L282 63C282 66.87 278.87 70 275 70L89 70C85.13 70 82 66.87 82 63L82 63C82 59.13 85.13 56 89 56Z" />
		<path id="Rectangle_295" class="shp0" d="M89 103L275 103C278.87 103 282 106.13 282 110L282 110C282 113.87 278.87 117 275 117L89 117C85.13 117 82 113.87 82 110L82 110C82 106.13 85.13 103 89 103Z" />
		<path id="Rectangle_294" class="shp0" d="M7 103L64 103C67.87 103 71 106.13 71 110L71 110C71 113.87 67.87 117 64 117L7 117C3.13 117 0 113.87 0 110L0 110C0 106.13 3.13 103 7 103Z" />
		<path id="Rectangle_297" class="shp0" d="M7 147L275 147C278.87 147 282 150.13 282 154L282 154C282 157.87 278.87 161 275 161L7 161C3.13 161 0 157.87 0 154L0 154C0 150.13 3.13 147 7 147Z" />
		<path id="Rectangle_299" class="shp0" d="M7 181L275 181C278.87 181 282 184.13 282 188L282 188C282 191.87 278.87 195 275 195L7 195C3.13 195 0 191.87 0 188L0 188C0 184.13 3.13 181 7 181Z" />
	</g>
</svg>